<svg width="24" height="24" viewBox="0 0 24 24" fill="none" xmlns="http://www.w3.org/2000/svg">
<path d="M21.9998 11.9999C21.9998 17.5227 17.5227 21.9998 11.9999 21.9998C6.47711 21.9998 2 17.5227 2 11.9999C2 6.47711 6.47711 2 11.9999 2" stroke="#FFB125" stroke-width="1.66678" stroke-linecap="round" stroke-linejoin="round"/>
<path d="M17.1726 1.17257V6.83008H22.8301" stroke="#FFB125" stroke-width="1.66678" stroke-linecap="round" stroke-linejoin="round"/>
<path d="M17.1714 6.8291L22.8289 1.17159" stroke="#FFB125" stroke-width="1.66678" stroke-linecap="round" stroke-linejoin="round"/>
<path d="M14.9167 7.91699H10.5417C10.0002 7.91699 9.48088 8.1321 9.09799 8.51498C8.7151 8.89787 8.5 9.41718 8.5 9.95866C8.5 10.5001 8.7151 11.0194 9.09799 11.4023C9.48088 11.7852 10.0002 12.0003 10.5417 12.0003H13.4583C13.9998 12.0003 14.5191 12.2154 14.902 12.5983C15.2849 12.9812 15.5 13.5005 15.5 14.042C15.5 14.5835 15.2849 15.1028 14.902 15.4857C14.5191 15.8686 13.9998 16.0837 13.4583 16.0837H8.5" stroke="#FFB125" stroke-width="1.67" stroke-linecap="round" stroke-linejoin="round"/>
<path d="M11.9988 5.58301V18.4163" stroke="#FFB125" stroke-width="1.67" stroke-linecap="round" stroke-linejoin="round"/>
</svg>
