<svg width="1384" height="1421" viewBox="0 0 1384 1421" fill="none" xmlns="http://www.w3.org/2000/svg">
<g opacity="0.6">
<path d="M78 129.841C87.134 91.2448 133.565 61.8943 189.927 73.6063C201.694 89.2473 209.063 104.437 213.075 117.69C168.107 97.9013 127.809 118.621 122.109 149.368C111.53 141.545 96.8284 134.36 78 129.841Z" fill="#FFD892"/>
<path d="M82.064 128.336C92.0745 92.366 135.64 65.5447 188.576 75.7679C198.653 89.2476 205.384 102.354 209.459 114.071C165.931 97.0479 127.579 116.649 120.569 146.003C110.914 139.119 98.0843 132.776 82.064 128.333V128.336Z" fill="#FFB125"/>
<path d="M119.27 126.858C121.086 124.07 124.299 122.63 127.501 122.593C138.581 110.487 156.415 102.796 177.456 103.172C178.729 101.008 181.968 99.6657 186.783 100.304C191.608 100.942 196.543 101.976 201.538 103.437C198.707 97.4555 195.184 91.2129 190.893 84.8352C185.4 83.7459 179.988 83.082 174.711 82.8204C169.607 82.5532 163.939 81.2425 158.737 79.291C134.727 81.3977 114.668 91.736 101.99 106.477C102.899 109.573 102.329 112.938 100.375 115.985C97.7711 120.02 95.6672 124.294 94.1008 128.729C101.482 131.563 108.017 134.787 113.717 138.225C115.065 134.247 116.93 130.433 119.272 126.863L119.27 126.858Z" fill="#FFD892"/>
<path d="M124.845 106.173C116.944 100.468 114.208 91.3688 122.606 86.9742C130.933 82.5193 146.028 86.2557 152.635 93.5358C159.358 100.81 156.377 107.415 149.333 110.315C142.173 113.198 132.827 111.97 124.845 106.173Z" fill="#FFB125"/>
<path d="M162.893 90.6863C160.364 87.7806 161.726 84.8749 166.474 84.6881C171.211 84.484 177.261 87.338 179.479 90.5283C181.713 93.7272 179.548 95.8167 175.122 95.7391C170.682 95.65 165.434 93.6122 162.89 90.6892L162.893 90.6863Z" fill="#FFB125"/>
<path d="M109.107 121.017C105.767 119.166 104.35 115.197 106.69 112.274C109.015 109.345 114.07 108.842 117.246 110.972C120.442 113.102 120.698 116.821 118.54 119.474C116.361 122.124 112.464 122.877 109.107 121.017Z" fill="#FFB125"/>
</g>
<g opacity="0.6">
<path d="M99.1099 626C100.777 644.321 89.2152 666.763 65.3281 679C51.0581 674.702 38.5289 666.668 29 655.93C55.1735 657.242 74.3034 642.693 79.8966 626.605C85.4367 628.315 92.1722 628.456 99.1115 626H99.1099Z" fill="#FFD892"/>
<path d="M97.8809 627.58C98.5034 645.208 86.9176 666.021 64.221 677.429C51.9774 673.488 41.0944 666.742 32.4175 657.88C57.2256 657.66 75.0784 643.479 80.5704 627.928C85.6774 629.319 91.6717 629.433 97.8809 627.58Z" fill="#FFB125"/>
<path d="M81.448 636.663C80.6185 638.309 78.9418 639.61 76.9908 640.204C71.5661 647.807 63.1267 654.386 52.3319 658.225C52.7844 659.874 51.9468 661.415 49.4952 662.158C47.0308 662.892 44.4621 663.493 41.8035 663.942C46.5735 667.561 51.8105 670.636 57.4132 673.081C59.9418 672.039 62.3549 670.873 64.6445 669.601C66.8651 668.376 70.0724 667.626 73.376 667.207C82.8647 660.024 89.3676 650.923 92.6326 641.653C91.6684 640.6 91.4389 639.031 91.9411 637.253C92.6021 634.896 93.053 632.539 93.2985 630.213C90.0848 630.669 86.9737 630.644 84.06 630.232C83.3926 632.397 82.5214 634.55 81.4464 636.663H81.448Z" fill="#FFD892"/>
<path d="M81.1658 647.145C86.5872 647.986 89.9871 650.882 87.4376 654.811C84.933 658.749 76.301 661.118 69.7196 658.822C63.1253 656.546 62.023 652.055 65.6731 649.614C69.365 647.112 75.6914 646.337 81.1642 647.145H81.1658Z" fill="#FFB125"/>
<path d="M65.763 662.505C68.3879 663.468 69.1227 665.203 67.1172 666.491C65.1196 667.781 61.001 667.845 58.2237 666.518C55.4399 665.193 55.1672 663.303 57.3156 662.38C59.4719 661.453 63.1285 661.544 65.763 662.505Z" fill="#FFB125"/>
<path d="M87.261 637.106C89.0692 637.172 90.1795 638.55 89.5008 640.36C88.8285 642.168 86.4202 643.593 84.3713 643.367C82.3176 643.144 81.5988 641.512 82.5102 639.869C83.4279 638.218 85.4447 637.045 87.261 637.108V637.106Z" fill="#FFB125"/>
</g>
<g opacity="0.6">
<path d="M1370.11 722C1371.78 740.321 1360.22 762.763 1336.33 775C1322.06 770.702 1309.53 762.668 1300 751.93C1326.17 753.242 1345.3 738.693 1350.9 722.605C1356.44 724.315 1363.17 724.456 1370.11 722H1370.11Z" fill="#FFD892"/>
<path d="M1368.88 723.58C1369.5 741.208 1357.92 762.021 1335.22 773.429C1322.98 769.488 1312.09 762.742 1303.42 753.88C1328.23 753.66 1346.08 739.479 1351.57 723.928C1356.68 725.319 1362.67 725.433 1368.88 723.58Z" fill="#FFB125"/>
<path d="M1352.45 732.663C1351.62 734.309 1349.94 735.61 1347.99 736.204C1342.57 743.807 1334.13 750.386 1323.33 754.225C1323.78 755.874 1322.95 757.415 1320.5 758.158C1318.03 758.892 1315.46 759.493 1312.8 759.942C1317.57 763.561 1322.81 766.636 1328.41 769.081C1330.94 768.039 1333.36 766.873 1335.64 765.601C1337.87 764.376 1341.07 763.626 1344.38 763.207C1353.86 756.024 1360.37 746.923 1363.63 737.653C1362.67 736.6 1362.44 735.031 1362.94 733.253C1363.6 730.896 1364.05 728.539 1364.3 726.213C1361.09 726.669 1357.97 726.644 1355.06 726.232C1354.39 728.397 1353.52 730.55 1352.45 732.663H1352.45Z" fill="#FFD892"/>
<path d="M1352.17 743.145C1357.59 743.986 1360.99 746.882 1358.44 750.811C1355.93 754.749 1347.3 757.118 1340.72 754.822C1334.13 752.546 1333.02 748.055 1336.67 745.614C1340.36 743.112 1346.69 742.337 1352.16 743.145H1352.17Z" fill="#FFB125"/>
<path d="M1336.76 758.505C1339.39 759.468 1340.12 761.203 1338.12 762.491C1336.12 763.781 1332 763.845 1329.22 762.518C1326.44 761.193 1326.17 759.303 1328.32 758.38C1330.47 757.453 1334.13 757.544 1336.76 758.505Z" fill="#FFB125"/>
<path d="M1358.26 733.106C1360.07 733.172 1361.18 734.55 1360.5 736.36C1359.83 738.168 1357.42 739.593 1355.37 739.367C1353.32 739.144 1352.6 737.512 1353.51 735.869C1354.43 734.218 1356.44 733.045 1358.26 733.108V733.106Z" fill="#FFB125"/>
</g>
<g opacity="0.6">
<path d="M122.599 417.584C95.5539 440.778 58.7965 457.072 16.5728 460.281C11.0344 447.638 6.84511 434.812 4 422.027C40.6007 421.746 72.4644 409.343 95.5788 391C103.397 400.548 112.43 409.485 122.599 417.584Z" fill="#FFD892"/>
<path d="M119.032 417.519C92.9603 439.137 58.107 454.358 18.2032 457.746C13.3866 446.702 9.6081 435.513 6.86255 424.337C42.0668 423.443 72.808 411.49 95.539 393.914C102.451 402.303 110.3 410.221 119.029 417.519H119.032Z" fill="#FFB125"/>
<path d="M88.4821 408.675C85.7565 410.388 82.421 410.806 79.4963 410.071C65.5744 417.708 49.7358 423.468 32.4635 426.609C31.1219 429.183 28.2718 431.177 24.4061 431.675C20.523 432.178 16.5802 432.551 12.5801 432.788C14.2628 438.241 16.1918 443.683 18.3724 449.097C22.6238 448.721 26.8181 448.205 30.9476 447.553C34.9377 446.929 39.0847 447.553 42.5695 449.047C61.6017 444.853 79.0631 437.853 94.4362 428.802C95.0212 426.164 96.8258 423.63 99.6535 421.778C103.402 419.324 107.009 416.742 110.469 414.044C106.265 410.086 102.297 405.977 98.5732 401.74C95.3448 404.162 91.9769 406.477 88.4772 408.673L88.4821 408.675Z" fill="#FFD892"/>
<path d="M76.6015 424.815C81.1492 431.135 79.6507 439.04 72.0886 442.119C64.5514 445.208 54.535 441.599 50.8834 434.55C47.202 427.498 50.5101 420.242 57.1487 417.87C63.8196 415.51 72.0214 418.472 76.6015 424.812V424.815Z" fill="#FFB125"/>
<path d="M42.0819 437.948C43.4534 440.714 41.6637 443.678 37.8926 444.432C34.1265 445.189 29.9497 443.35 28.7524 440.47C27.5501 437.587 29.6385 434.844 33.2279 434.202C36.8223 433.562 40.7029 435.178 42.0794 437.948H42.0819Z" fill="#FFB125"/>
<path d="M94.9019 415.837C96.8708 418.09 96.2212 421.426 93.2367 423.223C90.2571 425.022 86.1873 424.477 84.3628 422.075C82.5333 419.673 83.519 416.442 86.3541 414.79C89.1943 413.139 92.928 413.58 94.9019 415.835V415.837Z" fill="#FFB125"/>
</g>
<g opacity="0.6">
<path d="M1383.6 217.704C1368.64 230.533 1348.31 239.546 1324.95 241.32C1321.89 234.328 1319.57 227.233 1318 220.162C1338.24 220.006 1355.87 213.146 1368.65 203C1372.98 208.281 1377.97 213.224 1383.6 217.704Z" fill="#FFD892"/>
<path d="M1381.63 217.667C1367.21 229.625 1347.93 238.044 1325.86 239.918C1323.19 233.809 1321.1 227.62 1319.58 221.438C1339.06 220.944 1356.06 214.333 1368.63 204.611C1372.46 209.251 1376.8 213.631 1381.62 217.667H1381.63Z" fill="#FFB125"/>
<path d="M1364.73 212.777C1363.22 213.724 1361.38 213.956 1359.76 213.55C1352.06 217.774 1343.3 220.959 1333.74 222.697C1333 224.121 1331.42 225.223 1329.29 225.499C1327.14 225.777 1324.96 225.983 1322.75 226.114C1323.68 229.131 1324.74 232.14 1325.95 235.135C1328.3 234.927 1330.62 234.642 1332.9 234.281C1335.11 233.936 1337.41 234.281 1339.33 235.107C1349.86 232.787 1359.52 228.916 1368.02 223.91C1368.34 222.451 1369.34 221.049 1370.91 220.025C1372.98 218.667 1374.98 217.239 1376.89 215.747C1374.56 213.558 1372.37 211.285 1370.31 208.941C1368.52 210.281 1366.66 211.561 1364.73 212.776L1364.73 212.777Z" fill="#FFD892"/>
<path d="M1358.16 221.704C1360.67 225.199 1359.84 229.572 1355.66 231.275C1351.49 232.984 1345.95 230.988 1343.93 227.088C1341.9 223.188 1343.73 219.175 1347.4 217.863C1351.09 216.557 1355.62 218.196 1358.16 221.702V221.704Z" fill="#FFB125"/>
<path d="M1339.06 228.968C1339.82 230.497 1338.83 232.137 1336.75 232.554C1334.66 232.973 1332.35 231.955 1331.69 230.362C1331.03 228.768 1332.18 227.251 1334.17 226.895C1336.15 226.542 1338.3 227.435 1339.06 228.968H1339.06Z" fill="#FFB125"/>
<path d="M1368.28 216.737C1369.37 217.983 1369.01 219.828 1367.36 220.822C1365.71 221.818 1363.46 221.516 1362.45 220.187C1361.44 218.859 1361.98 217.072 1363.55 216.158C1365.12 215.245 1367.19 215.488 1368.28 216.736V216.737Z" fill="#FFB125"/>
</g>
<g opacity="0.6">
<path d="M858.599 185.704C843.64 198.533 823.309 207.546 799.954 209.32C796.891 202.328 794.574 195.233 793 188.162C813.244 188.006 830.869 181.146 843.654 171C847.978 176.281 852.975 181.224 858.599 185.704Z" fill="#FFD892"/>
<path d="M856.626 185.667C842.205 197.625 822.928 206.044 800.856 207.918C798.192 201.809 796.102 195.62 794.583 189.438C814.055 188.944 831.059 182.333 843.632 172.611C847.455 177.251 851.796 181.631 856.625 185.667H856.626Z" fill="#FFB125"/>
<path d="M839.728 180.777C838.221 181.724 836.376 181.956 834.758 181.55C827.058 185.774 818.297 188.959 808.743 190.697C808.001 192.121 806.425 193.223 804.287 193.499C802.139 193.777 799.958 193.983 797.746 194.114C798.676 197.131 799.743 200.14 800.949 203.135C803.301 202.927 805.621 202.642 807.905 202.281C810.112 201.936 812.406 202.281 814.333 203.107C824.86 200.787 834.518 196.916 843.021 191.91C843.345 190.451 844.343 189.049 845.907 188.025C847.981 186.667 849.976 185.239 851.889 183.747C849.564 181.558 847.369 179.285 845.31 176.941C843.524 178.281 841.661 179.561 839.725 180.776L839.728 180.777Z" fill="#FFD892"/>
<path d="M833.157 189.704C835.672 193.199 834.843 197.572 830.661 199.275C826.492 200.984 820.952 198.988 818.932 195.088C816.895 191.188 818.725 187.175 822.397 185.863C826.087 184.557 830.623 186.196 833.157 189.702V189.704Z" fill="#FFB125"/>
<path d="M814.063 196.968C814.822 198.497 813.832 200.137 811.746 200.554C809.663 200.973 807.353 199.955 806.691 198.362C806.026 196.768 807.181 195.251 809.166 194.895C811.154 194.542 813.301 195.435 814.062 196.968H814.063Z" fill="#FFB125"/>
<path d="M843.279 184.737C844.368 185.983 844.009 187.828 842.358 188.822C840.71 189.818 838.459 189.516 837.45 188.187C836.438 186.859 836.983 185.072 838.551 184.158C840.122 183.245 842.187 183.488 843.279 184.736V184.737Z" fill="#FFB125"/>
</g>
<g opacity="0.6">
<path d="M663.599 1343.7C648.64 1356.53 628.309 1365.55 604.954 1367.32C601.891 1360.33 599.574 1353.23 598 1346.16C618.244 1346.01 635.869 1339.15 648.654 1329C652.978 1334.28 657.975 1339.22 663.599 1343.7Z" fill="#FFD892"/>
<path d="M661.626 1343.67C647.205 1355.62 627.928 1364.04 605.856 1365.92C603.192 1359.81 601.102 1353.62 599.583 1347.44C619.055 1346.94 636.059 1340.33 648.632 1330.61C652.455 1335.25 656.796 1339.63 661.625 1343.67H661.626Z" fill="#FFB125"/>
<path d="M644.728 1338.78C643.221 1339.72 641.376 1339.96 639.758 1339.55C632.058 1343.77 623.297 1346.96 613.743 1348.7C613.001 1350.12 611.425 1351.22 609.287 1351.5C607.139 1351.78 604.958 1351.98 602.746 1352.11C603.676 1355.13 604.743 1358.14 605.949 1361.13C608.301 1360.93 610.621 1360.64 612.905 1360.28C615.112 1359.94 617.406 1360.28 619.333 1361.11C629.86 1358.79 639.518 1354.92 648.021 1349.91C648.345 1348.45 649.343 1347.05 650.907 1346.02C652.981 1344.67 654.976 1343.24 656.889 1341.75C654.564 1339.56 652.369 1337.28 650.31 1334.94C648.524 1336.28 646.661 1337.56 644.725 1338.78L644.728 1338.78Z" fill="#FFD892"/>
<path d="M638.157 1347.7C640.672 1351.2 639.843 1355.57 635.661 1357.28C631.492 1358.98 625.952 1356.99 623.932 1353.09C621.895 1349.19 623.725 1345.17 627.397 1343.86C631.087 1342.56 635.623 1344.2 638.157 1347.7V1347.7Z" fill="#FFB125"/>
<path d="M619.063 1354.97C619.822 1356.5 618.832 1358.14 616.746 1358.55C614.663 1358.97 612.353 1357.96 611.691 1356.36C611.026 1354.77 612.181 1353.25 614.166 1352.9C616.154 1352.54 618.301 1353.44 619.062 1354.97H619.063Z" fill="#FFB125"/>
<path d="M648.279 1342.74C649.368 1343.98 649.009 1345.83 647.358 1346.82C645.71 1347.82 643.459 1347.52 642.45 1346.19C641.438 1344.86 641.983 1343.07 643.551 1342.16C645.122 1341.24 647.187 1341.49 648.279 1342.74V1342.74Z" fill="#FFB125"/>
</g>
<g opacity="0.6">
<path d="M0 998.493C12.9515 963.391 25.7309 928.224 38.3424 893C53.6949 898.494 70.4937 898.511 85.8872 893.016C98.4535 928.257 110.852 963.559 123.078 998.919C83.2281 1013 39.7395 1012.85 0.00410128 998.493H0Z" fill="#FFD892"/>
<path d="M8.07568 998.721C19.0359 964.599 29.8363 930.424 40.4811 896.203C54.5511 900.575 69.6332 900.587 83.736 896.22C94.3234 930.46 104.755 964.747 115.031 999.086C80.1591 1009.77 42.8616 1009.64 8.07568 998.725V998.721Z" fill="#FFB125"/>
<path d="M86.3624 987.459C85.8461 983.751 89.0953 979.932 94.1964 976.462C90.4392 958.43 86.641 940.402 82.7978 922.39C78.3399 920.948 75.4308 917.736 74.8941 913.839C74.3246 909.91 73.755 905.98 73.1855 902.051C65.749 903.137 58.1936 903.121 50.7652 902.002C50.1711 905.927 49.577 909.852 48.9788 913.782C48.4216 917.568 45.6313 920.69 41.3579 922.165C37.3794 940.287 33.3641 958.405 29.2996 976.511C34.0893 979.932 37.0721 983.661 36.4985 987.25C35.7159 991.978 34.9334 996.706 34.1467 1001.43C52.1132 1004.31 70.424 1004.4 88.4192 1001.7C87.7391 996.952 87.0548 992.212 86.3706 987.467L86.3624 987.459Z" fill="#FFD892"/>
<path d="M61.8443 967.697C41.9356 967.668 28.1237 956.79 30.537 949.247C32.8929 941.569 46.8237 938.901 61.9959 938.799C77.1681 938.934 91.0702 941.638 93.3442 949.345C95.6755 956.913 81.753 967.754 61.8402 967.693L61.8443 967.697Z" fill="#FFB125"/>
<path d="M60.0498 929.035C54.5061 928.924 50.4457 925.351 50.9538 921.684C51.4619 918.001 55.6534 915.518 60.3447 915.6C65.0361 915.706 69.117 918.353 69.4571 922.057C69.8013 925.744 65.5893 929.153 60.0457 929.035H60.0498Z" fill="#FFB125"/>
<path d="M58.5216 989.72C49.7371 989.536 43.079 985.603 43.6075 981.94C44.132 978.252 50.954 976.13 58.8863 976.285C66.8227 976.474 73.5095 978.895 73.8291 982.603C74.1569 986.287 67.3062 989.925 58.5175 989.72H58.5216Z" fill="#FFB125"/>
</g>
<g opacity="0.6">
<path d="M796 1396.49C808.952 1361.39 821.731 1326.22 834.342 1291C849.695 1296.49 866.494 1296.51 881.887 1291.02C894.454 1326.26 906.852 1361.56 919.078 1396.92C879.228 1411 835.74 1410.85 796.004 1396.49H796Z" fill="#FFD892"/>
<path d="M804.076 1396.72C815.036 1362.6 825.836 1328.42 836.481 1294.2C850.551 1298.57 865.633 1298.59 879.736 1294.22C890.323 1328.46 900.755 1362.75 911.031 1397.09C876.159 1407.77 838.862 1407.64 804.076 1396.73V1396.72Z" fill="#FFB125"/>
<path d="M882.362 1385.46C881.846 1381.75 885.095 1377.93 890.196 1374.46C886.439 1356.43 882.641 1338.4 878.798 1320.39C874.34 1318.95 871.431 1315.74 870.894 1311.84C870.324 1307.91 869.755 1303.98 869.185 1300.05C861.749 1301.14 854.193 1301.12 846.765 1300C846.171 1303.93 845.577 1307.85 844.979 1311.78C844.421 1315.57 841.631 1318.69 837.358 1320.16C833.379 1338.29 829.364 1356.41 825.299 1374.51C830.089 1377.93 833.072 1381.66 832.498 1385.25C831.716 1389.98 830.933 1394.71 830.146 1399.43C848.113 1402.31 866.424 1402.4 884.419 1399.7C883.739 1394.95 883.055 1390.21 882.37 1385.47L882.362 1385.46Z" fill="#FFD892"/>
<path d="M857.845 1365.7C837.936 1365.67 824.124 1354.79 826.537 1347.25C828.893 1339.57 842.824 1336.9 857.996 1336.8C873.168 1336.93 887.07 1339.64 889.344 1347.35C891.676 1354.91 877.753 1365.75 857.84 1365.69L857.845 1365.7Z" fill="#FFB125"/>
<path d="M856.05 1327.03C850.506 1326.92 846.446 1323.35 846.954 1319.68C847.462 1316 851.654 1313.52 856.345 1313.6C861.036 1313.71 865.117 1316.35 865.457 1320.06C865.802 1323.74 861.59 1327.15 856.046 1327.03H856.05Z" fill="#FFB125"/>
<path d="M854.522 1387.72C845.737 1387.54 839.079 1383.6 839.608 1379.94C840.132 1376.25 846.954 1374.13 854.886 1374.29C862.823 1374.47 869.509 1376.9 869.829 1380.6C870.157 1384.29 863.306 1387.93 854.518 1387.72H854.522Z" fill="#FFB125"/>
</g>
<g opacity="0.6">
<path d="M1323.34 1012.25C1340.07 997.357 1349.94 965.977 1334.99 933C1348.15 935.562 1361.52 941.12 1373.88 949.781C1379.31 990.93 1360.28 1025.34 1335.13 1040.72C1333.58 1029.32 1329.21 1019.62 1323.34 1012.25Z" fill="#FFD892"/>
<path d="M1325.47 1012.64C1341.62 997.65 1351.16 967.652 1338.29 935.596C1349.71 938.325 1361.2 943.358 1371.95 950.76C1376.83 989.515 1359.6 1022.11 1336.35 1037.61C1334.51 1027.78 1330.58 1019.32 1325.47 1012.64V1012.64Z" fill="#FFB125"/>
<path d="M1344.56 1021.55C1346.51 1019.41 1348.69 1018.36 1350.7 1018.58C1359.93 1006.68 1366.47 991.005 1368.14 973.116C1366.55 969.216 1365.42 964.862 1365.28 960.955C1365.15 957.023 1364.77 953.017 1364.13 948.962C1358.82 945.825 1353.37 943.251 1347.88 941.234C1348.96 944.937 1349.76 948.614 1350.33 952.24C1350.87 955.757 1349.85 958.21 1348.1 959.301C1349.33 975.527 1345.54 990.198 1338.93 1001.53C1339.23 1004.15 1338.59 1006.93 1337.06 1008.95C1335.04 1011.63 1332.87 1014.07 1330.58 1016.27C1332.98 1020.11 1335.03 1024.39 1336.6 1029.07C1339.38 1026.83 1342.05 1024.31 1344.56 1021.55L1344.56 1021.55Z" fill="#FFD892"/>
<path d="M1350.07 1001.13C1345.77 995.64 1343.52 987.947 1344.79 981.944C1346.05 976.011 1351.36 973.419 1357.31 978.207C1363.27 982.944 1366.08 993.984 1363.12 1000.62C1360.2 1007.29 1354.33 1006.56 1350.07 1001.13Z" fill="#FFB125"/>
<path d="M1357.35 968.924C1354.92 967.176 1352.95 963.306 1352.72 959.967C1352.5 956.637 1354.34 954.937 1357.07 956.482C1359.8 958.017 1362.14 962.393 1362.05 965.93C1361.97 969.472 1359.77 970.664 1357.35 968.926V968.924Z" fill="#FFB125"/>
<path d="M1340.42 1014.46C1339.12 1012.29 1339.26 1009.02 1340.74 1006.78C1342.21 1004.55 1344.66 1004.15 1346.24 1006.26C1347.83 1008.36 1347.71 1012.24 1345.95 1014.53C1344.2 1016.83 1341.72 1016.63 1340.42 1014.46Z" fill="#FFB125"/>
<g style="mix-blend-mode:multiply" opacity="0.5">
<path d="M1338.25 1038.69C1358.38 1018.53 1369.37 983.058 1357.51 945.404C1350.8 942.265 1343.97 939.908 1337.18 938.291C1348.86 969.296 1339.17 998.156 1323.34 1012.25C1329.21 1019.62 1333.59 1029.32 1335.14 1040.71C1336.19 1040.07 1337.22 1039.39 1338.25 1038.69H1338.25Z" fill="#808080"/>
</g>
<path d="M1317.02 1016.57C1329.72 998.116 1331.83 965.287 1309.45 936.824C1322.84 936.177 1337.15 938.386 1351.22 943.853C1366.31 982.522 1356.03 1020.47 1335.27 1041.4C1331.05 1030.7 1324.49 1022.32 1317.03 1016.57H1317.02Z" fill="#FFD892"/>
<path d="M1319.19 1016.44C1331.29 998.035 1333.41 966.625 1313.27 938.562C1325.01 938.491 1337.37 940.64 1349.57 945.268C1363.56 981.743 1354.59 1017.51 1335.71 1038.1C1331.58 1029 1325.75 1021.71 1319.19 1016.44Z" fill="#FFB125"/>
<path d="M1339.85 1020.55C1341.23 1018 1343.1 1016.46 1345.1 1016.19C1351.24 1002.43 1353.85 985.656 1351.21 967.883C1348.73 964.474 1346.6 960.515 1345.53 956.756C1344.46 952.97 1343.14 949.169 1341.55 945.383C1335.65 943.601 1329.75 942.399 1323.94 941.75C1325.86 945.089 1327.52 948.468 1328.93 951.857C1330.29 955.145 1329.89 957.768 1328.45 959.247C1333.52 974.71 1333.33 989.862 1329.61 1002.45C1330.53 1004.92 1330.57 1007.77 1329.56 1010.1C1328.24 1013.18 1326.72 1016.07 1325.01 1018.75C1328.26 1021.91 1331.27 1025.58 1333.91 1029.75C1336.08 1026.91 1338.07 1023.83 1339.85 1020.55V1020.55Z" fill="#FFD892"/>
<path d="M1340.33 999.397C1334.85 995.09 1330.83 988.154 1330.63 982.024C1330.44 975.959 1334.98 972.178 1341.9 975.409C1348.82 978.588 1354.18 988.641 1352.89 995.783C1351.64 1002.96 1345.77 1003.65 1340.33 999.394V999.397Z" fill="#FFB125"/>
<path d="M1339.73 966.385C1336.95 965.267 1334.11 961.979 1333.1 958.788C1332.09 955.606 1333.47 953.518 1336.49 954.365C1339.51 955.204 1342.82 958.899 1343.58 962.354C1344.34 965.815 1342.49 967.495 1339.73 966.385H1339.73Z" fill="#FFB125"/>
<path d="M1334.14 1014.65C1332.36 1012.85 1331.72 1009.63 1332.62 1007.11C1333.52 1004.6 1335.8 1003.63 1337.84 1005.29C1339.88 1006.96 1340.69 1010.75 1339.53 1013.39C1338.37 1016.05 1335.92 1016.44 1334.14 1014.65V1014.65Z" fill="#FFB125"/>
<g style="mix-blend-mode:multiply" opacity="0.5">
<path d="M1344.47 942.977C1332.97 939.398 1321.47 937.9 1310.53 938.233C1331.75 966.362 1329.51 998.421 1317.02 1016.57C1324.48 1022.32 1331.03 1030.69 1335.25 1041.38C1354.52 1019.07 1362.17 980.512 1344.46 942.977H1344.47Z" fill="#808080"/>
</g>
<path d="M1314.22 1018.81C1324.84 999.087 1323.35 966.224 1298 940.37C1311.24 938.267 1325.71 938.904 1340.29 942.804C1359.5 979.596 1353.42 1018.44 1335.06 1041.51C1329.7 1031.34 1322.26 1023.72 1314.22 1018.81Z" fill="#FFD892"/>
<path d="M1316.36 1018.45C1326.39 998.833 1325.07 967.379 1301.99 941.678C1313.65 940.328 1326.18 941.115 1338.81 944.388C1356.68 979.12 1351.67 1015.65 1335.15 1038.18C1330.05 1029.58 1323.46 1022.97 1316.36 1018.45Z" fill="#FFB125"/>
<path d="M1337.35 1020.28C1338.44 1017.59 1340.13 1015.86 1342.1 1015.38C1346.69 1001.03 1347.46 984.067 1342.9 966.691C1340.06 963.574 1337.51 959.872 1336.04 956.248C1334.56 952.601 1332.84 948.967 1330.85 945.376C1324.78 944.248 1318.78 943.698 1312.94 943.686C1315.22 946.795 1317.23 949.972 1319.01 953.188C1320.72 956.308 1320.61 958.961 1319.34 960.585C1326.06 975.404 1327.53 990.484 1325.2 1003.4C1326.38 1005.76 1326.73 1008.59 1325.98 1011.01C1325.01 1014.22 1323.8 1017.26 1322.41 1020.11C1325.98 1022.89 1329.37 1026.22 1332.45 1030.08C1334.29 1027.01 1335.94 1023.74 1337.35 1020.28L1337.35 1020.28Z" fill="#FFD892"/>
<path d="M1335.53 999.2C1329.6 995.518 1324.86 989.061 1323.99 982.99C1323.13 976.985 1327.24 972.729 1334.47 975.188C1341.7 977.592 1348.11 987 1347.61 994.244C1347.15 1001.52 1341.39 1002.84 1335.53 999.203V999.2Z" fill="#FFB125"/>
<path d="M1331.32 966.454C1328.44 965.647 1325.26 962.687 1323.91 959.624C1322.56 956.571 1323.7 954.347 1326.8 954.858C1329.89 955.364 1333.58 958.677 1334.71 962.026C1335.85 965.38 1334.19 967.256 1331.32 966.451V966.454Z" fill="#FFB125"/>
<path d="M1331.03 1015.03C1329.06 1013.44 1328.08 1010.31 1328.69 1007.71C1329.31 1005.11 1331.47 1003.9 1333.69 1005.33C1335.9 1006.76 1337.12 1010.45 1336.25 1013.2C1335.39 1015.96 1332.99 1016.62 1331.03 1015.03Z" fill="#FFB125"/>
</g>
<g opacity="0.6">
<path d="M292.338 1391.25C309.067 1376.36 318.94 1344.98 303.988 1312C317.148 1314.56 330.518 1320.12 342.878 1328.78C348.313 1369.93 329.284 1404.34 304.133 1419.72C302.583 1408.32 298.21 1398.62 292.338 1391.25Z" fill="#FFD892"/>
<path d="M294.473 1391.64C310.617 1376.65 320.159 1346.65 307.29 1314.6C318.707 1317.33 330.199 1322.36 340.946 1329.76C345.83 1368.52 328.6 1401.11 305.355 1416.61C303.511 1406.78 299.584 1398.32 294.473 1391.64V1391.64Z" fill="#FFB125"/>
<path d="M313.559 1400.55C315.509 1398.41 317.688 1397.36 319.7 1397.58C328.933 1385.68 335.474 1370 337.143 1352.12C335.546 1348.22 334.423 1343.86 334.279 1339.95C334.146 1336.02 333.769 1332.02 333.129 1327.96C327.82 1324.83 322.373 1322.25 316.884 1320.23C317.958 1323.94 318.765 1327.61 319.327 1331.24C319.865 1334.76 318.853 1337.21 317.101 1338.3C318.333 1354.53 314.544 1369.2 307.932 1380.53C308.228 1383.15 307.586 1385.93 306.059 1387.95C304.045 1390.63 301.87 1393.07 299.577 1395.27C301.981 1399.11 304.027 1403.39 305.597 1408.07C308.381 1405.83 311.049 1403.31 313.562 1400.55L313.559 1400.55Z" fill="#FFD892"/>
<path d="M319.07 1380.13C314.768 1374.64 312.522 1366.95 313.788 1360.94C315.047 1355.01 320.359 1352.42 326.307 1357.21C332.275 1361.94 335.076 1372.98 332.124 1379.62C329.197 1386.29 323.333 1385.56 319.07 1380.13Z" fill="#FFB125"/>
<path d="M326.349 1347.92C323.92 1346.18 321.948 1342.31 321.721 1338.97C321.501 1335.64 323.335 1333.94 326.07 1335.48C328.8 1337.02 331.137 1341.39 331.048 1344.93C330.967 1348.47 328.77 1349.66 326.349 1347.93V1347.92Z" fill="#FFB125"/>
<path d="M309.422 1393.46C308.121 1391.29 308.265 1388.02 309.738 1385.78C311.209 1383.55 313.655 1383.15 315.242 1385.26C316.832 1387.36 316.713 1391.24 314.953 1393.53C313.196 1395.83 310.72 1395.63 309.422 1393.46Z" fill="#FFB125"/>
<g style="mix-blend-mode:multiply" opacity="0.5">
<path d="M307.25 1417.69C327.378 1397.53 338.369 1362.06 326.509 1324.4C319.796 1321.26 312.974 1318.91 306.182 1317.29C317.859 1348.3 308.174 1377.16 292.34 1391.25C298.212 1398.62 302.586 1408.32 304.136 1419.71C305.187 1419.07 306.224 1418.39 307.253 1417.69H307.25Z" fill="#808080"/>
</g>
<path d="M286.024 1395.57C298.723 1377.12 300.828 1344.29 278.45 1315.82C291.842 1315.18 306.15 1317.39 320.221 1322.85C335.306 1361.52 325.026 1399.47 304.267 1420.4C300.046 1409.7 293.486 1401.32 286.027 1395.57H286.024Z" fill="#FFD892"/>
<path d="M288.189 1395.44C300.295 1377.03 302.413 1345.63 282.272 1317.56C294.011 1317.49 306.372 1319.64 318.574 1324.27C332.556 1360.74 323.592 1396.51 304.71 1417.1C300.576 1408 294.747 1400.71 288.189 1395.44Z" fill="#FFB125"/>
<path d="M308.85 1399.55C310.232 1397 312.1 1395.46 314.104 1395.19C320.235 1381.43 322.852 1364.66 320.208 1346.88C317.728 1343.47 315.6 1339.52 314.529 1335.76C313.463 1331.97 312.142 1328.17 310.553 1324.38C304.649 1322.6 298.745 1321.4 292.935 1320.75C294.86 1324.09 296.521 1327.47 297.931 1330.86C299.293 1334.14 298.893 1336.77 297.452 1338.25C302.516 1353.71 302.334 1368.86 298.614 1381.45C299.525 1383.92 299.567 1386.77 298.562 1389.1C297.244 1392.18 295.717 1395.07 294.011 1397.75C297.259 1400.91 300.268 1404.58 302.909 1408.75C305.076 1405.91 307.068 1402.83 308.85 1399.55V1399.55Z" fill="#FFD892"/>
<path d="M309.334 1378.4C303.847 1374.09 299.834 1367.15 299.631 1361.02C299.439 1354.96 303.98 1351.18 310.899 1354.41C317.824 1357.59 323.175 1367.64 321.889 1374.78C320.638 1381.96 314.766 1382.65 309.334 1378.39V1378.4Z" fill="#FFB125"/>
<path d="M308.726 1345.38C305.95 1344.27 303.114 1340.98 302.099 1337.79C301.092 1334.61 302.469 1332.52 305.493 1333.36C308.512 1334.2 311.821 1337.9 312.579 1341.35C313.344 1344.81 311.493 1346.5 308.729 1345.38H308.726Z" fill="#FFB125"/>
<path d="M303.144 1393.65C301.362 1391.85 300.722 1388.63 301.618 1386.11C302.517 1383.6 304.797 1382.63 306.841 1384.29C308.885 1385.96 309.694 1389.75 308.532 1392.39C307.372 1395.05 304.923 1395.44 303.144 1393.65V1393.65Z" fill="#FFB125"/>
<g style="mix-blend-mode:multiply" opacity="0.5">
<path d="M313.465 1321.98C301.974 1318.4 290.472 1316.9 279.531 1317.23C300.754 1345.36 298.513 1377.42 286.022 1395.57C293.476 1401.32 300.034 1409.69 304.254 1420.38C323.523 1398.07 331.167 1359.51 313.463 1321.98H313.465Z" fill="#808080"/>
</g>
<path d="M283.223 1397.81C293.836 1378.09 292.35 1345.22 267 1319.37C280.242 1317.27 294.708 1317.9 309.287 1321.8C328.497 1358.6 322.418 1397.44 304.062 1420.51C298.699 1410.34 291.264 1402.72 283.223 1397.81Z" fill="#FFD892"/>
<path d="M285.363 1397.45C295.391 1377.83 294.071 1346.38 270.994 1320.68C282.653 1319.33 295.177 1320.12 307.809 1323.39C325.683 1358.12 320.673 1394.65 304.148 1417.18C299.047 1408.58 292.457 1401.97 285.363 1397.45Z" fill="#FFB125"/>
<path d="M306.348 1399.28C307.443 1396.59 309.134 1394.86 311.096 1394.38C315.692 1380.03 316.462 1363.07 311.896 1345.69C309.06 1342.57 306.51 1338.87 305.037 1335.25C303.563 1331.6 301.836 1327.97 299.846 1324.38C293.785 1323.25 287.785 1322.7 281.938 1322.69C284.216 1325.8 286.235 1328.97 288.007 1332.19C289.72 1335.31 289.609 1337.96 288.337 1339.59C295.056 1354.4 296.527 1369.48 294.202 1382.4C295.377 1384.76 295.73 1387.59 294.984 1390.01C294.009 1393.22 292.805 1396.26 291.405 1399.11C294.979 1401.89 298.37 1405.22 301.448 1409.08C303.292 1406.01 304.938 1402.74 306.35 1399.28L306.348 1399.28Z" fill="#FFD892"/>
<path d="M304.526 1378.2C298.603 1374.52 293.856 1368.06 292.987 1361.99C292.134 1355.98 296.238 1351.73 303.467 1354.19C310.696 1356.59 317.114 1366 316.613 1373.24C316.151 1380.52 310.39 1381.84 304.526 1378.2V1378.2Z" fill="#FFB125"/>
<path d="M300.323 1345.45C297.443 1344.65 294.264 1341.69 292.906 1338.62C291.559 1335.57 292.699 1333.35 295.796 1333.86C298.887 1334.36 302.581 1337.68 303.712 1341.03C304.85 1344.38 303.193 1346.26 300.323 1345.45V1345.45Z" fill="#FFB125"/>
<path d="M300.031 1394.03C298.064 1392.44 297.077 1389.31 297.694 1386.71C298.313 1384.11 300.473 1382.9 302.687 1384.33C304.898 1385.76 306.118 1389.45 305.249 1392.2C304.385 1394.96 301.993 1395.62 300.031 1394.03Z" fill="#FFB125"/>
</g>
<g opacity="0.6">
<path d="M1298.43 42.001C1307.3 34.1091 1312.53 17.4777 1304.6 0C1311.58 1.35782 1318.66 4.3037 1325.22 8.89388C1328.1 30.7028 1318.01 48.9379 1304.68 57.0888C1303.86 51.0479 1301.54 45.9083 1298.43 42.001Z" fill="#FFD892"/>
<path d="M1299.56 42.2098C1308.12 34.2656 1313.17 18.3668 1306.35 1.37695C1312.41 2.82373 1318.5 5.49098 1324.19 9.41402C1326.78 29.9541 1317.65 47.2303 1305.33 55.4466C1304.35 50.2364 1302.27 45.7509 1299.56 42.2085V42.2098Z" fill="#FFB125"/>
<path d="M1309.68 46.932C1310.71 45.7952 1311.87 45.2406 1312.93 45.3544C1317.82 39.0467 1321.29 30.7414 1322.18 21.2602C1321.33 19.1934 1320.73 16.8859 1320.66 14.8151C1320.59 12.7313 1320.39 10.6082 1320.05 8.45899C1317.23 6.79638 1314.35 5.43201 1311.44 4.36328C1312.01 6.32545 1312.44 8.27455 1312.73 10.1962C1313.02 12.0602 1312.48 13.3605 1311.55 13.9387C1312.21 22.5382 1310.2 30.3137 1306.69 36.3206C1306.85 37.7072 1306.51 39.1827 1305.7 40.2528C1304.63 41.6707 1303.48 42.9658 1302.27 44.1326C1303.54 46.1654 1304.62 48.4363 1305.46 50.9178C1306.93 49.7261 1308.35 48.3958 1309.68 46.9307L1309.68 46.932Z" fill="#FFD892"/>
<path d="M1312.6 36.1071C1310.32 33.1978 1309.13 29.1204 1309.8 25.9391C1310.47 22.7944 1313.28 21.4208 1316.43 23.9586C1319.6 26.4689 1321.08 32.3201 1319.52 35.835C1317.96 39.3721 1314.86 38.9849 1312.6 36.1071Z" fill="#FFB125"/>
<path d="M1316.45 19.0399C1315.17 18.1138 1314.12 16.0627 1314 14.2928C1313.89 12.5281 1314.86 11.6268 1316.31 12.4457C1317.75 13.2594 1318.99 15.5787 1318.95 17.4532C1318.9 19.3303 1317.74 19.9621 1316.45 19.0412V19.0399Z" fill="#FFB125"/>
<path d="M1307.48 43.1748C1306.79 42.0224 1306.87 40.2878 1307.65 39.1026C1308.43 37.9227 1309.73 37.7095 1310.57 38.8279C1311.41 39.9411 1311.35 41.9962 1310.42 43.2101C1309.48 44.4293 1308.17 44.322 1307.48 43.1748Z" fill="#FFB125"/>
<g style="mix-blend-mode:multiply" opacity="0.5">
<path d="M1306.33 56.0136C1317 45.3315 1322.83 26.5313 1316.54 6.57468C1312.98 4.91075 1309.37 3.6615 1305.77 2.80469C1311.95 19.2372 1306.82 34.533 1298.43 42.0011C1301.54 45.9084 1303.86 51.048 1304.68 57.0889C1305.24 56.7488 1305.79 56.389 1306.33 56.0136H1306.33Z" fill="#808080"/>
</g>
<path d="M1295.08 44.2893C1301.81 34.5111 1302.93 17.1118 1291.07 2.02665C1298.17 1.68392 1305.75 2.85469 1313.21 5.75217C1321.2 26.2464 1315.75 46.3587 1304.75 57.4515C1302.51 51.7808 1299.04 47.3411 1295.08 44.2893H1295.08Z" fill="#FFD892"/>
<path d="M1296.23 44.2232C1302.65 34.4685 1303.77 17.8215 1293.09 2.94818C1299.32 2.91025 1305.87 4.04961 1312.33 6.50233C1319.74 25.8337 1314.99 44.7883 1304.99 55.7045C1302.8 50.8775 1299.71 47.0173 1296.23 44.2232Z" fill="#FFB125"/>
<path d="M1307.18 46.3983C1307.91 45.0483 1308.9 44.2334 1309.97 44.0908C1313.21 36.798 1314.6 27.9068 1313.2 18.487C1311.89 16.6805 1310.76 14.5823 1310.19 12.5901C1309.63 10.5834 1308.93 8.56891 1308.08 6.56226C1304.95 5.6178 1301.82 4.98075 1298.75 4.63672C1299.77 6.4066 1300.65 8.19741 1301.39 9.99345C1302.12 11.7359 1301.9 13.1264 1301.14 13.91C1303.82 22.1053 1303.73 30.1358 1301.76 36.8059C1302.24 38.1153 1302.26 39.6288 1301.73 40.8611C1301.03 42.4923 1300.22 44.0254 1299.32 45.4486C1301.04 47.1191 1302.63 49.0669 1304.03 51.2776C1305.18 49.7693 1306.24 48.1394 1307.18 46.3996V46.3983Z" fill="#FFD892"/>
<path d="M1307.44 35.1898C1304.53 32.9071 1302.4 29.2313 1302.29 25.982C1302.19 22.7679 1304.6 20.7639 1308.27 22.4762C1311.94 24.1611 1314.77 29.489 1314.09 33.2747C1313.43 37.0787 1310.32 37.445 1307.44 35.1885V35.1898Z" fill="#FFB125"/>
<path d="M1307.11 17.6934C1305.64 17.1008 1304.14 15.3584 1303.6 13.667C1303.07 11.9809 1303.8 10.8742 1305.4 11.3229C1307 11.7676 1308.76 13.7259 1309.16 15.5573C1309.56 17.3912 1308.58 18.2821 1307.12 17.6934H1307.11Z" fill="#FFB125"/>
<path d="M1304.16 43.2722C1303.21 42.3173 1302.87 40.6142 1303.35 39.2773C1303.82 37.9456 1305.03 37.4302 1306.12 38.3145C1307.2 39.1949 1307.63 41.2054 1307.01 42.6064C1306.4 44.0126 1305.1 44.2206 1304.16 43.2709V43.2722Z" fill="#FFB125"/>
<g style="mix-blend-mode:multiply" opacity="0.5">
<path d="M1309.63 5.28819C1303.54 3.39143 1297.44 2.5974 1291.64 2.774C1302.89 17.6826 1301.7 34.6737 1295.08 44.291C1299.03 47.3415 1302.51 51.7773 1304.74 57.4428C1314.96 45.62 1319.01 25.182 1309.63 5.28819H1309.63Z" fill="#808080"/>
</g>
<path d="M1293.6 45.4793C1299.22 35.0261 1298.44 17.6085 1285 3.90602C1292.02 2.79151 1299.68 3.12901 1307.41 5.19583C1317.59 24.6959 1314.37 45.283 1304.64 57.51C1301.8 52.1179 1297.86 48.0824 1293.6 45.4793Z" fill="#FFD892"/>
<path d="M1294.73 45.2866C1300.05 34.891 1299.35 18.2204 1287.12 4.599C1293.3 3.88346 1299.93 4.30075 1306.63 6.03531C1316.1 24.4431 1313.45 43.8032 1304.69 55.745C1301.98 51.1862 1298.49 47.6857 1294.73 45.2866Z" fill="#FFB125"/>
<path d="M1305.85 46.2556C1306.43 44.8336 1307.33 43.9153 1308.37 43.6576C1310.81 36.0536 1311.21 27.0642 1308.79 17.8551C1307.29 16.2029 1305.94 14.2407 1305.16 12.3204C1304.38 10.387 1303.46 8.46147 1302.41 6.55817C1299.2 5.96036 1296.02 5.66865 1292.92 5.66211C1294.12 7.31034 1295.19 8.99388 1296.13 10.6984C1297.04 12.3518 1296.98 13.758 1296.31 14.6188C1299.87 22.4727 1300.65 30.4653 1299.42 37.3107C1300.04 38.5599 1300.23 40.0629 1299.83 41.3449C1299.31 43.0428 1298.68 44.6544 1297.93 46.1679C1299.83 47.6409 1301.63 49.4029 1303.26 51.4488C1304.23 49.8241 1305.11 48.0882 1305.86 46.2569L1305.85 46.2556Z" fill="#FFD892"/>
<path d="M1304.89 35.0869C1301.75 33.1352 1299.23 29.7132 1298.77 26.4952C1298.32 23.3126 1300.5 21.0574 1304.33 22.3602C1308.16 23.6343 1311.56 28.6209 1311.29 32.4602C1311.05 36.3139 1308 37.0164 1304.89 35.0882V35.0869Z" fill="#FFB125"/>
<path d="M1302.66 17.7293C1301.13 17.3015 1299.45 15.7331 1298.73 14.1097C1298.02 12.4916 1298.62 11.3129 1300.26 11.5837C1301.9 11.8519 1303.86 13.6074 1304.46 15.3825C1305.06 17.1602 1304.18 18.1544 1302.66 17.728V17.7293Z" fill="#FFB125"/>
<path d="M1302.51 43.4786C1301.46 42.6323 1300.94 40.9762 1301.27 39.5961C1301.6 38.2213 1302.74 37.5764 1303.91 38.3377C1305.09 39.0938 1305.73 41.0468 1305.27 42.5067C1304.81 43.9718 1303.55 44.3211 1302.51 43.4786Z" fill="#FFB125"/>
</g>
<g opacity="0.6">
<path d="M35.429 42.001C44.2954 34.1091 49.5278 17.4777 41.6033 0C48.5781 1.35782 55.6642 4.3037 62.2152 8.89388C65.0957 30.7028 55.0101 48.9379 41.6804 57.0888C40.8589 51.0479 38.541 45.9083 35.429 42.001Z" fill="#FFD892"/>
<path d="M36.5605 42.2098C45.1169 34.2656 50.1741 18.3668 43.3536 1.37695C49.4049 2.82373 55.4955 5.49098 61.191 9.41402C63.7798 29.9541 54.6479 47.2303 42.328 55.4466C41.3509 50.2364 39.2697 45.7509 36.5605 42.2085V42.2098Z" fill="#FFB125"/>
<path d="M46.6763 46.932C47.7098 45.7952 48.8648 45.2406 49.9309 45.3544C54.8246 39.0467 58.2911 30.7414 59.1754 21.2602C58.3291 19.1934 57.7338 16.8859 57.658 14.8151C57.5873 12.7313 57.3872 10.6082 57.0484 8.45899C54.2346 6.79638 51.3476 5.43201 48.4384 4.36328C49.0074 6.32545 49.4352 8.27455 49.7334 10.1962C50.0186 12.0602 49.4823 13.3605 48.5535 13.9387C49.2062 22.5382 47.1983 30.3137 43.6938 36.3206C43.8508 37.7072 43.5107 39.1827 42.701 40.2528C41.6336 41.6707 40.4811 42.9658 39.2659 44.1326C40.54 46.1654 41.6244 48.4363 42.4564 50.9178C43.9319 49.7261 45.346 48.3958 46.6777 46.9307L46.6763 46.932Z" fill="#FFD892"/>
<path d="M49.5972 36.1071C47.3171 33.1978 46.1267 29.1204 46.7978 25.9391C47.4649 22.7944 50.28 21.4208 53.4326 23.9586C56.5956 26.4689 58.0803 32.3201 56.5158 35.835C54.9644 39.3721 51.8563 38.9849 49.5972 36.1071Z" fill="#FFB125"/>
<path d="M53.4548 19.0399C52.1676 18.1138 51.1225 16.0627 51.0021 14.2928C50.8857 12.5281 51.8576 11.6268 53.307 12.4457C54.7538 13.2594 55.9926 15.5787 55.9455 17.4532C55.9023 19.3303 54.7381 19.9621 53.4548 19.0412V19.0399Z" fill="#FFB125"/>
<path d="M44.4839 43.1748C43.7945 42.0224 43.8704 40.2878 44.6513 39.1026C45.431 37.9227 46.7273 37.7095 47.5684 38.8279C48.4108 39.9411 48.3481 41.9962 47.4154 43.2101C46.484 44.4293 45.1719 44.322 44.4839 43.1748Z" fill="#FFB125"/>
<g style="mix-blend-mode:multiply" opacity="0.5">
<path d="M43.3327 56.0136C54.0004 45.3315 59.8255 26.5313 53.54 6.57468C49.9819 4.91075 46.3663 3.6615 42.7663 2.80469C48.955 19.2372 43.822 34.533 35.4304 42.0011C38.5424 45.9084 40.8604 51.048 41.6819 57.0889C42.2392 56.7488 42.7886 56.389 43.334 56.0136H43.3327Z" fill="#808080"/>
</g>
<path d="M32.083 44.2893C38.8132 34.5111 39.929 17.1118 28.0684 2.02665C35.1662 1.68392 42.7493 2.85469 50.2069 5.75217C58.2021 26.2464 52.7538 46.3587 41.7512 57.4515C39.5144 51.7808 36.0374 47.3411 32.0843 44.2893H32.083Z" fill="#FFD892"/>
<path d="M33.2298 44.2232C39.6461 34.4685 40.7685 17.8215 30.0942 2.94818C36.3156 2.91025 42.8667 4.04961 49.334 6.50233C56.7445 25.8337 51.9934 44.7883 41.9863 55.7045C39.7952 50.8775 36.7055 47.0173 33.2298 44.2232Z" fill="#FFB125"/>
<path d="M44.1801 46.3983C44.9127 45.0483 45.9029 44.2334 46.9651 44.0908C50.2144 36.798 51.601 27.9068 50.2 18.487C48.8854 16.6805 47.7578 14.5823 47.1901 12.5901C46.625 10.5834 45.9251 8.56891 45.0827 6.56226C41.9537 5.6178 38.8247 4.98075 35.7454 4.63672C36.7657 6.4066 37.6461 8.19741 38.393 9.99345C39.1151 11.7359 38.9032 13.1264 38.1392 13.91C40.8235 22.1053 40.7267 30.1358 38.7553 36.8059C39.238 38.1153 39.2603 39.6288 38.7279 40.8611C38.0293 42.4923 37.2196 44.0254 36.3157 45.4486C38.0372 47.1191 39.6318 49.0669 41.0315 51.2776C42.18 49.7693 43.2356 48.1394 44.1801 46.3996V46.3983Z" fill="#FFD892"/>
<path d="M44.4366 35.1898C41.5287 32.9071 39.4016 29.2313 39.2944 25.982C39.1923 22.7679 41.5993 20.7639 45.2659 22.4762C48.9365 24.1611 51.7725 29.489 51.091 33.2747C50.4278 37.0787 47.3158 37.445 44.4366 35.1885V35.1898Z" fill="#FFB125"/>
<path d="M44.1147 17.6934C42.6431 17.1008 41.14 15.3584 40.6024 13.667C40.0687 11.9809 40.7986 10.8742 42.401 11.3229C44.0009 11.7676 45.7551 13.7259 46.1567 15.5573C46.5622 17.3912 45.5811 18.2821 44.116 17.6934H44.1147Z" fill="#FFB125"/>
<path d="M41.156 43.2722C40.2116 42.3173 39.8728 40.6142 40.3476 39.2773C40.8238 37.9456 42.0325 37.4302 43.1156 38.3145C44.1987 39.1949 44.6278 41.2054 44.0116 42.6064C43.3968 44.0126 42.0992 44.2206 41.156 43.2709V43.2722Z" fill="#FFB125"/>
<g style="mix-blend-mode:multiply" opacity="0.5">
<path d="M46.6266 5.28819C40.5361 3.39143 34.4402 2.5974 28.6414 2.774C39.8898 17.6826 38.7021 34.6737 32.0817 44.291C36.0322 47.3415 39.5079 51.7773 41.7448 57.4428C51.9572 45.62 56.0084 25.182 46.6253 5.28819H46.6266Z" fill="#808080"/>
</g>
<path d="M30.5982 45.4793C36.2231 35.0261 35.4357 17.6085 22 3.90602C29.018 2.79151 36.6849 3.12901 44.4119 5.19583C54.593 24.6959 51.3711 45.283 41.6427 57.51C38.8001 52.1179 34.8601 48.0824 30.5982 45.4793Z" fill="#FFD892"/>
<path d="M31.7323 45.2866C37.0472 34.891 36.3473 18.2204 24.1165 4.599C30.296 3.88346 36.9334 4.30075 43.6283 6.03531C53.1017 24.4431 50.4462 43.8032 41.6884 55.745C38.9845 51.1862 35.4918 47.6857 31.7323 45.2866Z" fill="#FFB125"/>
<path d="M42.854 46.2556C43.4348 44.8336 44.3309 43.9153 45.3708 43.6576C47.8065 36.0536 48.2147 27.0642 45.7947 17.8551C44.2916 16.2029 42.9403 14.2407 42.1594 12.3204C41.3785 10.387 40.4628 8.46147 39.4084 6.55817C36.1957 5.96036 33.0157 5.66865 29.9167 5.66211C31.1241 7.31034 32.1942 8.99388 33.1334 10.6984C34.0412 12.3518 33.9824 13.758 33.3087 14.6188C36.8694 22.4727 37.649 30.4653 36.4168 37.3107C37.0394 38.5599 37.2265 40.0629 36.8314 41.3449C36.3147 43.0428 35.6764 44.6544 34.9347 46.1679C36.8288 47.6409 38.6262 49.4029 40.2574 51.4488C41.2346 49.8241 42.1071 48.0882 42.8553 46.2569L42.854 46.2556Z" fill="#FFD892"/>
<path d="M41.8887 35.0869C38.7492 33.1352 36.2337 29.7132 35.7732 26.4952C35.3206 23.3126 37.496 21.0574 41.3275 22.3602C45.1589 23.6343 48.56 28.6209 48.2945 32.4602C48.0499 36.3139 44.9967 37.0164 41.8887 35.0882V35.0869Z" fill="#FFB125"/>
<path d="M39.661 17.7293C38.1344 17.3015 36.4495 15.7331 35.7301 14.1097C35.0158 12.4916 35.6202 11.3129 37.2619 11.5837C38.8997 11.8519 40.8579 13.6074 41.457 15.3825C42.0601 17.1602 41.1823 18.1544 39.661 17.728V17.7293Z" fill="#FFB125"/>
<path d="M39.5063 43.4786C38.4637 42.6323 37.9405 40.9762 38.2675 39.5961C38.5958 38.2213 39.7404 37.5764 40.9138 38.3377C42.0859 39.0938 42.7321 41.0468 42.2716 42.5067C41.8138 43.9718 40.5462 44.3211 39.5063 43.4786Z" fill="#FFB125"/>
</g>
<g opacity="0.6">
<path d="M1327.75 589.595C1317.18 552.015 1298.59 522.995 1276 504.965C1299.48 489.643 1326.15 477.995 1355.26 471C1369.69 507.231 1375.78 551.894 1370.35 601.6C1356.66 595.63 1342.41 591.72 1327.76 589.595H1327.75Z" fill="#FFD892"/>
<path d="M1329.82 587.587C1320.14 551.068 1302.95 522.284 1281.76 503.415C1302.6 490.733 1325.81 480.902 1350.88 474.572C1365.05 508.655 1371.74 550.584 1368.08 597.428C1355.67 592.594 1342.88 589.379 1329.82 587.584L1329.82 587.587Z" fill="#FFB125"/>
<path d="M1358.05 572.514C1357.72 568.077 1359.12 564.377 1361.9 561.943C1360.16 539.99 1355.99 519.645 1349.77 501.293C1344.44 499.794 1340.16 497.207 1338.54 493.611C1336.93 489.98 1335.23 486.449 1333.45 483.018C1321.76 486.767 1310.52 491.312 1299.8 496.571C1301.97 499.178 1304.09 501.899 1306.14 504.735C1308.11 507.492 1307.21 511.098 1304.47 514.353C1313.91 527.596 1321.92 543.284 1328.02 561.112C1331.57 563.178 1334.21 566.505 1335.16 570.248C1336.43 575.189 1337.56 580.265 1338.55 585.469C1345.37 586.562 1352.13 588.056 1358.82 589.981C1358.73 584.057 1358.48 578.232 1358.06 572.517L1358.05 572.514Z" fill="#FFD892"/>
<path d="M1341.85 547.794C1330.09 548.173 1318.22 544.024 1314.58 537.698C1310.98 531.417 1318.39 522.752 1332.39 519.484C1346.41 516.21 1359.98 522.127 1361.31 531.283C1362.67 540.445 1353.54 547.361 1341.85 547.797L1341.85 547.794Z" fill="#FFB125"/>
<path d="M1326.49 511.261C1320.95 512.768 1315.18 511.821 1313.36 508.999C1311.55 506.182 1314.62 502.083 1320.48 500C1326.34 497.914 1332.52 499.122 1334 502.512C1335.48 505.904 1332.01 509.748 1326.49 511.261Z" fill="#FFB125"/>
<path d="M1345.37 571.433C1341.44 571.018 1337.51 567.671 1336.48 563.889C1335.44 560.11 1338.05 556.927 1342.45 556.878C1346.85 556.825 1351 560.316 1351.56 564.56C1352.13 568.807 1349.29 571.846 1345.37 571.433H1345.37Z" fill="#FFB125"/>
</g>
<g opacity="0.6">
<path d="M376 196.841C385.134 158.245 431.565 128.894 487.927 140.606C499.694 156.247 507.063 171.437 511.075 184.69C466.107 164.901 425.809 185.621 420.109 216.368C409.53 208.545 394.828 201.36 376 196.841Z" fill="#FFD892"/>
<path d="M380.064 195.336C390.075 159.366 433.64 132.545 486.576 142.768C496.653 156.248 503.384 169.354 507.459 181.071C463.931 164.048 425.579 183.649 418.569 213.003C408.914 206.119 396.084 199.776 380.064 195.333V195.336Z" fill="#FFB125"/>
<path d="M417.27 193.858C419.086 191.07 422.299 189.63 425.501 189.593C436.581 177.487 454.415 169.796 475.456 170.172C476.73 168.008 479.969 166.666 484.783 167.304C489.609 167.942 494.543 168.976 499.539 170.437C496.708 164.455 493.184 158.213 488.893 151.835C483.4 150.746 477.988 150.082 472.712 149.82C467.607 149.553 461.939 148.243 456.737 146.291C432.727 148.398 412.668 158.736 399.991 173.477C400.899 176.573 400.33 179.938 398.375 182.985C395.771 187.02 393.667 191.294 392.101 195.729C399.482 198.563 406.018 201.787 411.717 205.225C413.065 201.247 414.93 197.433 417.273 193.863L417.27 193.858Z" fill="#FFD892"/>
<path d="M422.845 173.173C414.944 167.468 412.208 158.369 420.606 153.974C428.932 149.519 444.027 153.256 450.635 160.536C457.358 167.81 454.377 174.415 447.333 177.315C440.173 180.198 430.827 178.97 422.845 173.173Z" fill="#FFB125"/>
<path d="M460.893 157.686C458.364 154.781 459.726 151.875 464.474 151.688C469.211 151.484 475.261 154.338 477.479 157.528C479.713 160.727 477.548 162.817 473.122 162.739C468.682 162.65 463.434 160.612 460.89 157.689L460.893 157.686Z" fill="#FFB125"/>
<path d="M407.106 188.017C403.767 186.166 402.35 182.197 404.689 179.274C407.015 176.345 412.07 175.842 415.246 177.972C418.442 180.102 418.698 183.821 416.539 186.474C414.361 189.124 410.463 189.877 407.106 188.017Z" fill="#FFB125"/>
</g>
<g opacity="0.6">
<path d="M610.51 903.11C592.189 904.777 569.747 893.215 557.51 869.328C561.809 855.058 569.842 842.529 580.581 833C579.268 859.173 593.817 878.303 609.905 883.897C608.195 889.437 608.054 896.172 610.51 903.112L610.51 903.11Z" fill="#FFD892"/>
<path d="M608.93 901.881C591.302 902.504 570.489 890.918 559.081 868.222C563.021 855.978 569.768 845.095 578.63 836.418C578.849 861.226 593.031 879.079 608.582 884.571C607.19 889.678 607.077 895.672 608.93 901.881Z" fill="#FFB125"/>
<path d="M599.847 885.447C598.201 884.618 596.9 882.941 596.306 880.99C588.702 875.565 582.124 867.126 578.285 856.331C576.635 856.784 575.095 855.946 574.352 853.495C573.617 851.03 573.017 848.461 572.568 845.803C568.948 850.573 565.874 855.81 563.429 861.412C564.47 863.941 565.637 866.354 566.909 868.644C568.133 870.864 568.884 874.072 569.303 877.375C576.486 886.864 585.587 893.367 594.857 896.632C595.91 895.668 597.479 895.438 599.257 895.94C601.613 896.601 603.97 897.052 606.297 897.298C605.841 894.084 605.865 890.973 606.278 888.059C604.113 887.392 601.96 886.521 599.847 885.446L599.847 885.447Z" fill="#FFD892"/>
<path d="M589.365 885.166C588.524 890.588 585.628 893.988 581.699 891.438C577.762 888.934 575.392 880.302 577.688 873.72C579.965 867.126 584.455 866.024 586.896 869.674C589.399 873.366 590.174 879.692 589.365 885.165L589.365 885.166Z" fill="#FFB125"/>
<path d="M574.004 869.762C573.042 872.387 571.307 873.122 570.019 871.116C568.729 869.119 568.665 865 569.992 862.223C571.317 859.439 573.207 859.166 574.129 861.315C575.057 863.471 574.965 867.128 574.004 869.762Z" fill="#FFB125"/>
<path d="M599.404 891.261C599.338 893.069 597.96 894.179 596.15 893.501C594.342 892.828 592.917 890.42 593.143 888.371C593.366 886.317 594.998 885.599 596.641 886.51C598.292 887.428 599.465 889.444 599.402 891.261L599.404 891.261Z" fill="#FFB125"/>
</g>
<g opacity="0.6">
<path d="M1114.81 916.599C1101.98 901.64 1092.96 881.309 1091.19 857.954C1098.18 854.891 1105.28 852.574 1112.35 851C1112.5 871.244 1119.36 888.869 1129.51 901.654C1124.23 905.978 1119.29 910.975 1114.81 916.599Z" fill="#FFD892"/>
<path d="M1114.84 914.626C1102.88 900.206 1094.46 880.928 1092.59 858.857C1098.7 856.193 1104.89 854.103 1111.07 852.584C1111.56 872.056 1118.18 889.059 1127.9 901.632C1123.26 905.456 1118.88 909.797 1114.84 914.625L1114.84 914.626Z" fill="#FFB125"/>
<path d="M1119.73 897.729C1118.79 896.221 1118.55 894.376 1118.96 892.758C1114.74 885.058 1111.55 876.297 1109.81 866.744C1108.39 866.002 1107.29 864.425 1107.01 862.287C1106.73 860.139 1106.53 857.959 1106.4 855.746C1103.38 856.677 1100.37 857.744 1097.38 858.95C1097.58 861.301 1097.87 863.621 1098.23 865.905C1098.57 868.112 1098.23 870.406 1097.4 872.334C1099.72 882.861 1103.59 892.519 1108.6 901.022C1110.06 901.345 1111.46 902.344 1112.49 903.908C1113.84 905.981 1115.27 907.976 1116.76 909.89C1118.95 907.564 1121.23 905.37 1123.57 903.31C1122.23 901.524 1120.95 899.662 1119.73 897.726L1119.73 897.729Z" fill="#FFD892"/>
<path d="M1110.81 891.157C1107.31 893.672 1102.94 892.843 1101.23 888.661C1099.53 884.492 1101.52 878.952 1105.42 876.932C1109.32 874.895 1113.34 876.725 1114.65 880.397C1115.95 884.087 1114.31 888.623 1110.81 891.157L1110.81 891.157Z" fill="#FFB125"/>
<path d="M1103.54 872.063C1102.01 872.822 1100.37 871.832 1099.96 869.746C1099.54 867.663 1100.55 865.353 1102.15 864.691C1103.74 864.026 1105.26 865.181 1105.61 867.166C1105.97 869.154 1105.07 871.301 1103.54 872.062L1103.54 872.063Z" fill="#FFB125"/>
<path d="M1115.77 901.28C1114.53 902.369 1112.68 902.01 1111.69 900.359C1110.69 898.711 1110.99 896.46 1112.32 895.451C1113.65 894.439 1115.44 894.984 1116.35 896.552C1117.26 898.123 1117.02 900.188 1115.77 901.28L1115.77 901.28Z" fill="#FFB125"/>
</g>
<g opacity="0.6">
<path d="M1250.6 64.0171C1237.65 99.1185 1224.87 134.285 1212.26 169.51C1196.9 164.015 1180.1 163.999 1164.71 169.493C1152.15 134.253 1139.75 98.9505 1127.52 63.591C1167.37 49.5086 1210.86 49.6644 1250.59 64.0171L1250.6 64.0171Z" fill="#FFD892"/>
<path d="M1242.52 63.7886C1231.56 97.9108 1220.76 132.086 1210.12 166.307C1196.05 161.935 1180.97 161.923 1166.86 166.29C1156.28 132.049 1145.84 97.7633 1135.57 63.424C1170.44 52.7382 1207.74 52.8653 1242.52 63.7845L1242.52 63.7886Z" fill="#FFB125"/>
<path d="M1164.24 75.0509C1164.75 78.7589 1161.5 82.5776 1156.4 86.0479C1160.16 104.08 1163.96 122.108 1167.8 140.12C1172.26 141.562 1175.17 144.774 1175.7 148.671C1176.27 152.6 1176.84 156.529 1177.41 160.459C1184.85 159.373 1192.41 159.389 1199.83 160.508C1200.43 156.583 1201.02 152.657 1201.62 148.728C1202.18 144.942 1204.97 141.82 1209.24 140.345C1213.22 122.223 1217.23 104.105 1221.3 85.9988C1216.51 82.5776 1213.53 78.849 1214.1 75.2598C1214.88 70.5316 1215.67 65.8033 1216.45 61.0791C1198.49 58.2028 1180.17 58.1127 1162.18 60.8128C1162.86 65.5575 1163.54 70.298 1164.23 75.0427L1164.24 75.0509Z" fill="#FFD892"/>
<path d="M1188.75 94.8128C1208.66 94.8415 1222.47 105.72 1220.06 113.263C1217.71 120.941 1203.77 123.609 1188.6 123.711C1173.43 123.576 1159.53 120.872 1157.25 113.165C1154.92 105.597 1168.85 94.7555 1188.76 94.8169L1188.75 94.8128Z" fill="#FFB125"/>
<path d="M1190.55 133.475C1196.09 133.586 1200.15 137.159 1199.64 140.826C1199.14 144.509 1194.95 146.992 1190.25 146.91C1185.56 146.804 1181.48 144.157 1181.14 140.453C1180.8 136.765 1185.01 133.356 1190.55 133.475L1190.55 133.475Z" fill="#FFB125"/>
<path d="M1192.08 72.7894C1200.86 72.9738 1207.52 76.9072 1206.99 80.5702C1206.47 84.2577 1199.64 86.3801 1191.71 86.2244C1183.78 86.0359 1177.09 83.6145 1176.77 79.9064C1176.44 76.223 1183.29 72.5846 1192.08 72.7894L1192.08 72.7894Z" fill="#FFB125"/>
</g>
<g opacity="0.6">
<path d="M320.262 856.338C335.153 873.067 366.533 882.94 399.51 867.988C396.948 881.148 391.39 894.518 382.729 906.878C341.58 912.313 307.174 893.284 291.794 868.133C303.192 866.583 312.89 862.21 320.262 856.338Z" fill="#FFD892"/>
<path d="M319.87 858.473C334.859 874.617 364.857 884.159 396.913 871.29C394.183 882.707 389.151 894.199 381.749 904.946C342.994 909.83 310.397 892.6 294.894 869.355C304.725 867.511 313.188 863.584 319.872 858.473L319.87 858.473Z" fill="#FFB125"/>
<path d="M310.957 877.558C313.102 879.508 314.148 881.688 313.934 883.699C325.835 892.932 341.506 899.473 359.395 901.142C363.294 899.545 367.648 898.422 371.555 898.278C375.487 898.145 379.493 897.768 383.548 897.128C386.685 891.819 389.259 886.372 391.276 880.883C387.574 881.957 383.896 882.764 380.27 883.326C376.753 883.864 374.3 882.852 373.209 881.1C356.983 882.332 342.313 878.543 330.979 871.931C328.363 872.227 325.578 871.585 323.56 870.058C320.884 868.044 318.441 865.869 316.239 863.576C312.403 865.98 308.119 868.026 303.437 869.596C305.685 872.38 308.195 875.048 310.96 877.561L310.957 877.558Z" fill="#FFD892"/>
<path d="M331.381 883.071C336.87 878.769 344.564 876.523 350.566 877.789C356.5 879.048 359.091 884.359 354.303 890.307C349.567 896.275 338.527 899.077 331.895 896.125C325.221 893.198 325.951 887.333 331.381 883.071Z" fill="#FFB125"/>
<path d="M363.586 890.349C365.333 887.92 369.203 885.948 372.543 885.721C375.872 885.501 377.573 887.335 376.028 890.07C374.493 892.8 370.117 895.137 366.58 895.048C363.038 894.967 361.846 892.77 363.583 890.349L363.586 890.349Z" fill="#FFB125"/>
<path d="M318.046 873.423C320.22 872.122 323.493 872.265 325.729 873.739C327.956 875.21 328.358 877.656 326.248 879.243C324.147 880.832 320.27 880.714 317.979 878.954C315.679 877.196 315.881 874.721 318.046 873.423Z" fill="#FFB125"/>
<g style="mix-blend-mode:multiply" opacity="0.5">
<path d="M293.824 871.25C313.979 891.378 349.451 902.368 387.105 890.509C390.245 883.796 392.602 876.974 394.218 870.181C363.213 881.858 334.353 872.173 320.262 856.34C312.89 862.212 303.193 866.585 291.795 868.135C292.436 869.187 293.115 870.223 293.824 871.252L293.824 871.25Z" fill="#808080"/>
</g>
<path d="M315.945 850.024C334.395 862.723 367.224 864.828 395.687 842.449C396.333 855.841 394.124 870.149 388.657 884.22C349.989 899.306 312.041 889.026 291.111 868.266C301.81 864.046 310.187 857.485 315.945 850.026L315.945 850.024Z" fill="#FFD892"/>
<path d="M316.071 852.188C334.476 864.294 365.886 866.412 393.949 846.271C394.021 858.01 391.871 870.371 387.243 882.573C350.769 896.555 315.005 887.591 294.408 868.71C303.516 864.575 310.799 858.746 316.071 852.188Z" fill="#FFB125"/>
<path d="M311.964 872.85C314.512 874.232 316.049 876.101 316.318 878.105C330.078 884.236 346.854 886.852 364.627 884.209C368.036 881.728 371.995 879.601 375.754 878.529C379.54 877.463 383.341 876.143 387.127 874.553C388.909 868.649 390.111 862.746 390.76 856.936C387.421 858.861 384.042 860.522 380.653 861.931C377.366 863.294 374.742 862.894 373.263 861.452C357.8 866.517 342.648 866.334 330.063 862.615C327.593 863.526 324.737 863.568 322.412 862.563C319.334 861.245 316.442 859.717 313.756 858.012C310.604 861.26 306.929 864.268 302.758 866.909C305.604 869.076 308.679 871.068 311.962 872.85L311.964 872.85Z" fill="#FFD892"/>
<path d="M333.114 873.333C337.421 867.847 344.356 863.833 350.487 863.631C356.551 863.438 360.333 867.98 357.102 874.898C353.923 881.824 343.87 887.175 336.727 885.889C329.55 884.637 328.859 878.766 333.116 873.333L333.114 873.333Z" fill="#FFB125"/>
<path d="M366.125 872.727C367.244 869.95 370.531 867.114 373.722 866.1C376.904 865.093 378.992 866.47 378.145 869.493C377.306 872.512 373.611 875.822 370.156 876.58C366.696 877.345 365.015 875.494 366.125 872.729L366.125 872.727Z" fill="#FFB125"/>
<path d="M317.863 867.143C319.665 865.361 322.879 864.721 325.401 865.617C327.914 866.516 328.886 868.796 327.218 870.84C325.557 872.884 321.763 873.693 319.12 872.531C316.466 871.371 316.074 868.922 317.866 867.143L317.863 867.143Z" fill="#FFB125"/>
<g style="mix-blend-mode:multiply" opacity="0.5">
<path d="M389.534 877.466C393.113 865.974 394.611 854.473 394.277 843.531C366.148 864.755 334.089 862.514 315.943 850.022C310.187 857.476 301.818 864.034 291.128 868.255C313.435 887.524 351.998 895.168 389.534 877.463L389.534 877.466Z" fill="#808080"/>
</g>
<path d="M313.699 847.223C333.422 857.836 366.286 856.35 392.14 831C394.243 844.242 393.606 858.708 389.706 873.287C352.913 892.497 314.07 886.418 291 868.062C301.173 862.699 308.788 855.264 313.699 847.223Z" fill="#FFD892"/>
<path d="M314.062 849.364C333.676 859.392 365.131 858.071 390.831 834.994C392.182 846.654 391.394 859.177 388.121 871.809C353.39 889.684 316.861 884.673 294.329 868.149C302.931 863.047 309.535 856.457 314.062 849.364Z" fill="#FFB125"/>
<path d="M312.233 870.348C314.916 871.443 316.649 873.134 317.135 875.096C331.483 879.692 348.444 880.462 365.82 875.896C368.937 873.06 372.639 870.51 376.262 869.037C379.91 867.563 383.543 865.836 387.135 863.846C388.262 857.785 388.813 851.785 388.825 845.938C385.715 848.216 382.539 850.235 379.323 852.007C376.203 853.72 373.55 853.609 371.926 852.337C357.107 859.056 342.027 860.527 329.111 858.202C326.754 859.377 323.918 859.73 321.499 858.984C318.295 858.009 315.254 856.805 312.399 855.405C309.62 858.979 306.295 862.37 302.435 865.448C305.5 867.292 308.776 868.938 312.231 870.35L312.233 870.348Z" fill="#FFD892"/>
<path d="M333.309 868.525C336.991 862.602 343.448 857.855 349.52 856.987C355.525 856.133 359.78 860.237 357.322 867.466C354.918 874.696 345.509 881.113 338.265 880.612C330.994 880.15 329.668 874.389 333.306 868.525L333.309 868.525Z" fill="#FFB125"/>
<path d="M366.056 864.323C366.864 861.443 369.823 858.264 372.886 856.906C375.939 855.559 378.163 856.699 377.652 859.796C377.146 862.887 373.834 866.581 370.484 867.712C367.13 868.85 365.254 867.193 366.059 864.323L366.056 864.323Z" fill="#FFB125"/>
<path d="M317.476 864.032C319.073 862.065 322.197 861.077 324.801 861.694C327.395 862.314 328.612 864.474 327.176 866.687C325.749 868.899 322.064 870.118 319.31 869.249C316.545 868.386 315.886 865.994 317.476 864.032Z" fill="#FFB125"/>
</g>
<g opacity="0.6">
<path d="M1290.51 831.43C1298.4 840.296 1315.03 845.529 1332.51 837.604C1331.15 844.579 1328.21 851.665 1323.62 858.216C1301.81 861.096 1283.57 851.011 1275.42 837.681C1281.46 836.86 1286.6 834.542 1290.51 831.43Z" fill="#FFD892"/>
<path d="M1290.3 832.561C1298.25 841.117 1314.14 846.174 1331.13 839.354C1329.69 845.405 1327.02 851.496 1323.1 857.191C1302.56 859.78 1285.28 850.648 1277.06 838.328C1282.27 837.351 1286.76 835.27 1290.3 832.561L1290.3 832.561Z" fill="#FFB125"/>
<path d="M1285.58 842.678C1286.71 843.711 1287.27 844.867 1287.15 845.933C1293.46 850.826 1301.77 854.293 1311.25 855.177C1313.32 854.331 1315.62 853.736 1317.69 853.66C1319.78 853.589 1321.9 853.389 1324.05 853.05C1325.71 850.236 1327.08 847.349 1328.15 844.44C1326.18 845.009 1324.23 845.437 1322.31 845.735C1320.45 846.02 1319.15 845.484 1318.57 844.555C1309.97 845.208 1302.2 843.2 1296.19 839.696C1294.8 839.853 1293.33 839.512 1292.26 838.703C1290.84 837.635 1289.54 836.483 1288.38 835.268C1286.34 836.542 1284.07 837.626 1281.59 838.458C1282.78 839.934 1284.11 841.348 1285.58 842.679L1285.58 842.678Z" fill="#FFD892"/>
<path d="M1296.4 845.599C1299.31 843.319 1303.39 842.128 1306.57 842.8C1309.71 843.467 1311.09 846.282 1308.55 849.434C1306.04 852.597 1300.19 854.082 1296.67 852.518C1293.14 850.966 1293.52 847.858 1296.4 845.599Z" fill="#FFB125"/>
<path d="M1313.47 849.456C1314.4 848.169 1316.45 847.124 1318.22 847.004C1319.98 846.887 1320.88 847.859 1320.06 849.308C1319.25 850.755 1316.93 851.994 1315.06 851.947C1313.18 851.904 1312.55 850.74 1313.47 849.456L1313.47 849.456Z" fill="#FFB125"/>
<path d="M1289.33 840.485C1290.49 839.796 1292.22 839.872 1293.41 840.653C1294.59 841.432 1294.8 842.729 1293.68 843.57C1292.57 844.412 1290.51 844.349 1289.3 843.417C1288.08 842.485 1288.19 841.173 1289.33 840.485Z" fill="#FFB125"/>
<g style="mix-blend-mode:multiply" opacity="0.5">
<path d="M1276.5 839.332C1287.18 850 1305.98 855.825 1325.94 849.539C1327.6 845.981 1328.85 842.366 1329.71 838.766C1313.27 844.954 1297.98 839.821 1290.51 831.43C1286.6 834.542 1281.46 836.86 1275.42 837.681C1275.76 838.238 1276.12 838.788 1276.5 839.333L1276.5 839.332Z" fill="#808080"/>
</g>
<path d="M1288.22 828.083C1298 834.813 1315.4 835.929 1330.48 824.068C1330.83 831.166 1329.66 838.749 1326.76 846.207C1306.26 854.202 1286.15 848.754 1275.06 837.751C1280.73 835.514 1285.17 832.037 1288.22 828.084L1288.22 828.083Z" fill="#FFD892"/>
<path d="M1288.29 829.229C1298.04 835.646 1314.69 836.768 1329.56 826.094C1329.6 832.315 1328.46 838.866 1326.01 845.334C1306.68 852.744 1287.72 847.993 1276.81 837.986C1281.63 835.795 1285.49 832.705 1288.29 829.229Z" fill="#FFB125"/>
<path d="M1286.11 840.181C1287.46 840.913 1288.28 841.904 1288.42 842.966C1295.71 846.215 1304.6 847.602 1314.02 846.201C1315.83 844.886 1317.93 843.759 1319.92 843.191C1321.93 842.626 1323.94 841.926 1325.95 841.083C1326.89 837.954 1327.53 834.825 1327.87 831.746C1326.1 832.766 1324.31 833.647 1322.52 834.394C1320.77 835.116 1319.38 834.904 1318.6 834.14C1310.4 836.824 1302.37 836.727 1295.7 834.756C1294.39 835.239 1292.88 835.261 1291.65 834.729C1290.02 834.03 1288.48 833.22 1287.06 832.316C1285.39 834.038 1283.44 835.633 1281.23 837.032C1282.74 838.181 1284.37 839.236 1286.11 840.181L1286.11 840.181Z" fill="#FFD892"/>
<path d="M1297.32 840.436C1299.6 837.528 1303.28 835.401 1306.53 835.294C1309.74 835.192 1311.75 837.599 1310.03 841.266C1308.35 844.936 1303.02 847.772 1299.24 847.091C1295.43 846.428 1295.07 843.316 1297.32 840.436L1297.32 840.436Z" fill="#FFB125"/>
<path d="M1314.82 840.115C1315.41 838.643 1317.15 837.14 1318.84 836.603C1320.53 836.069 1321.64 836.799 1321.19 838.401C1320.74 840.001 1318.78 841.755 1316.95 842.157C1315.12 842.562 1314.23 841.581 1314.82 840.116L1314.82 840.115Z" fill="#FFB125"/>
<path d="M1289.24 837.157C1290.19 836.212 1291.9 835.873 1293.23 836.348C1294.56 836.824 1295.08 838.033 1294.2 839.116C1293.31 840.199 1291.3 840.628 1289.9 840.012C1288.5 839.397 1288.29 838.1 1289.24 837.157L1289.24 837.157Z" fill="#FFB125"/>
<g style="mix-blend-mode:multiply" opacity="0.5">
<path d="M1327.22 842.626C1329.12 836.535 1329.91 830.44 1329.74 824.641C1314.83 835.889 1297.84 834.701 1288.22 828.081C1285.17 832.031 1280.73 835.507 1275.07 837.744C1286.89 847.956 1307.33 852.008 1327.22 842.625L1327.22 842.626Z" fill="#808080"/>
</g>
<path d="M1287.03 826.598C1297.48 832.223 1314.9 831.436 1328.6 818C1329.72 825.018 1329.38 832.685 1327.31 840.412C1307.81 850.593 1287.23 847.371 1275 837.643C1280.39 834.8 1284.43 830.86 1287.03 826.598Z" fill="#FFD892"/>
<path d="M1287.22 827.733C1297.62 833.048 1314.29 832.348 1327.91 820.117C1328.63 826.297 1328.21 832.934 1326.47 839.629C1308.07 849.102 1288.71 846.447 1276.76 837.689C1281.32 834.985 1284.82 831.493 1287.22 827.733Z" fill="#FFB125"/>
<path d="M1286.25 838.853C1287.68 839.434 1288.59 840.33 1288.85 841.37C1296.46 843.806 1305.45 844.214 1314.65 841.794C1316.31 840.291 1318.27 838.94 1320.19 838.159C1322.12 837.378 1324.05 836.462 1325.95 835.408C1326.55 832.195 1326.84 829.015 1326.85 825.916C1325.2 827.123 1323.52 828.193 1321.81 829.133C1320.16 830.041 1318.75 829.982 1317.89 829.308C1310.04 832.869 1302.04 833.648 1295.2 832.416C1293.95 833.039 1292.45 833.226 1291.16 832.831C1289.47 832.314 1287.85 831.676 1286.34 830.934C1284.87 832.828 1283.11 834.625 1281.06 836.257C1282.69 837.234 1284.42 838.106 1286.25 838.855L1286.25 838.853Z" fill="#FFD892"/>
<path d="M1297.42 837.889C1299.38 834.75 1302.8 832.234 1306.02 831.774C1309.2 831.321 1311.45 833.497 1310.15 837.328C1308.88 841.16 1303.89 844.561 1300.05 844.295C1296.2 844.051 1295.49 840.997 1297.42 837.889L1297.42 837.889Z" fill="#FFB125"/>
<path d="M1314.78 835.66C1315.21 834.134 1316.78 832.449 1318.4 831.73C1320.02 831.015 1321.2 831.62 1320.93 833.261C1320.66 834.899 1318.9 836.857 1317.13 837.457C1315.35 838.06 1314.35 837.182 1314.78 835.66L1314.78 835.66Z" fill="#FFB125"/>
<path d="M1289.03 835.506C1289.88 834.463 1291.53 833.94 1292.91 834.267C1294.29 834.595 1294.93 835.74 1294.17 836.913C1293.42 838.085 1291.46 838.731 1290 838.271C1288.54 837.813 1288.19 836.545 1289.03 835.506Z" fill="#FFB125"/>
</g>
<g opacity="0.6">
<path d="M742.915 860.753C780.495 850.179 809.515 831.585 827.545 809C842.867 832.476 854.515 859.151 861.51 888.26C825.279 902.691 780.616 908.782 730.91 903.353C736.88 889.661 740.789 875.41 742.915 860.756L742.915 860.753Z" fill="#FFD892"/>
<path d="M744.922 862.817C781.441 853.137 810.225 835.951 829.094 814.758C841.777 835.604 851.607 858.815 857.937 883.879C823.854 898.055 781.926 904.739 735.082 901.084C739.915 888.673 743.131 875.879 744.925 862.82L744.922 862.817Z" fill="#FFB125"/>
<path d="M759.995 891.054C764.432 890.716 768.133 892.121 770.566 894.901C792.519 893.163 812.865 888.987 831.216 882.772C832.716 877.441 835.303 873.158 838.898 871.543C842.53 869.932 846.06 868.233 849.492 866.454C845.742 854.757 841.197 843.519 835.938 832.801C833.331 834.975 830.61 837.087 827.774 839.137C825.017 841.115 821.411 840.208 818.156 837.47C804.914 846.911 789.225 854.918 771.398 861.019C769.331 864.572 766.004 867.211 762.261 868.161C757.32 869.431 752.244 870.561 747.041 871.55C745.947 878.371 744.454 885.133 742.528 891.82C748.452 891.735 754.278 891.479 759.992 891.06L759.995 891.054Z" fill="#FFD892"/>
<path d="M784.716 874.849C784.336 863.093 788.485 851.223 794.811 847.578C801.092 843.976 809.757 851.386 813.025 865.389C816.3 879.404 810.382 892.981 801.227 894.314C792.064 895.666 785.148 886.54 784.712 874.846L784.716 874.849Z" fill="#FFB125"/>
<path d="M821.248 859.485C819.742 853.951 820.688 848.177 823.511 846.36C826.327 844.549 830.427 847.618 832.509 853.479C834.595 859.338 833.387 865.517 829.998 866.997C826.605 868.484 822.761 865.013 821.248 859.485Z" fill="#FFB125"/>
<path d="M761.076 878.368C761.492 874.438 764.838 870.512 768.621 869.477C772.4 868.445 775.583 871.052 775.632 875.453C775.684 879.851 772.193 884.003 767.949 884.563C763.702 885.126 760.663 882.291 761.076 878.371L761.076 878.368Z" fill="#FFB125"/>
</g>
</svg>
