<svg width="262" height="32" viewBox="0 0 262 32" fill="none" xmlns="http://www.w3.org/2000/svg">
<rect x="0.5" y="0.5" width="45" height="31" rx="5.5" fill="white" stroke="#D9D9D9"/>
<path fill-rule="evenodd" clip-rule="evenodd" d="M13.9644 21.6773H11.1777L9.088 13.5895C8.98882 13.2175 8.77822 12.8886 8.46843 12.7335C7.69533 12.344 6.84342 12.0339 5.91406 11.8776V11.5662H10.4032C11.0228 11.5662 11.4875 12.0339 11.5649 12.5772L12.6492 18.4112L15.4345 11.5662H18.1438L13.9644 21.6773ZM19.6927 21.6773H17.0609L19.228 11.5662H21.8598L19.6927 21.6773ZM25.2648 14.3673C25.3422 13.8227 25.8069 13.5113 26.349 13.5113C27.2009 13.4331 28.1289 13.5895 28.9034 13.9777L29.3681 11.8008C28.5936 11.4894 27.7417 11.333 26.9686 11.333C24.4142 11.333 22.5555 12.7336 22.5555 14.6773C22.5555 16.1561 23.8721 16.9325 24.8014 17.4002C25.8069 17.8666 26.1941 18.178 26.1167 18.6444C26.1167 19.344 25.3422 19.6554 24.5691 19.6554C23.6398 19.6554 22.7104 19.4222 21.8598 19.0326L21.3952 21.2109C22.3245 21.5992 23.33 21.7555 24.2593 21.7555C27.1235 21.8324 28.9034 20.4332 28.9034 18.333C28.9034 15.6883 25.2648 15.5333 25.2648 14.3673ZM38.1141 21.6773L36.0244 11.5662H33.7798C33.3151 11.5662 32.8504 11.8776 32.6955 12.344L28.8259 21.6773H31.5352L32.076 20.2H35.4048L35.7146 21.6773H38.1141ZM34.167 14.2891L34.9401 18.0998H32.773L34.167 14.2891Z" fill="#172B85"/>
<rect x="54.5" y="1" width="45" height="30" rx="5.5" fill="white" stroke="#D9D9D9"/>
<path d="M79.0311 25.6873C84.1535 25.7116 88.829 21.5439 88.829 16.4739C88.829 10.93 84.1535 7.09754 79.0311 7.09961H74.6224C69.4389 7.09754 65.1719 10.9311 65.1719 16.4739C65.1719 21.5449 69.4389 25.7116 74.6224 25.6873H79.0311Z" fill="#0079BE"/>
<path d="M74.6431 7.86816C69.906 7.86972 66.068 11.6774 66.0664 16.3769C66.068 21.076 69.906 24.8836 74.6431 24.8852C79.3808 24.8836 83.2203 21.076 83.2209 16.3769C83.2203 11.6774 79.3813 7.86972 74.6431 7.86816ZM69.2069 16.3769C69.2059 15.2904 69.5385 14.2288 70.1612 13.3309C70.7838 12.433 71.6676 11.7406 72.697 11.3442V21.4092C71.6675 21.013 70.7836 20.3208 70.1609 19.4229C69.5382 18.5251 69.2058 17.4635 69.2069 16.3769ZM76.5887 21.4112V11.3437C77.6189 11.7395 78.5034 12.4319 79.1265 13.33C79.7496 14.2282 80.0823 15.2904 80.0809 16.3775C80.0821 17.4645 79.7493 18.5265 79.1263 19.4247C78.5032 20.3228 77.6188 21.0152 76.5887 21.4112Z" fill="white"/>
<path d="M79.0311 25.6873C84.1535 25.7116 88.829 21.5439 88.829 16.4739C88.829 10.93 84.1535 7.09754 79.0311 7.09961H74.6224C69.4389 7.09754 65.1719 10.9311 65.1719 16.4739C65.1719 21.5449 69.4389 25.7116 74.6224 25.6873H79.0311Z" fill="#0079BE"/>
<path d="M74.6431 7.86816C69.906 7.86972 66.068 11.6774 66.0664 16.3769C66.068 21.076 69.906 24.8836 74.6431 24.8852C79.3808 24.8836 83.2203 21.076 83.2209 16.3769C83.2203 11.6774 79.3813 7.86972 74.6431 7.86816ZM69.2069 16.3769C69.2059 15.2904 69.5385 14.2288 70.1612 13.3309C70.7838 12.433 71.6676 11.7406 72.697 11.3442V21.4092C71.6675 21.013 70.7836 20.3208 70.1609 19.4229C69.5382 18.5251 69.2058 17.4635 69.2069 16.3769ZM76.5887 21.4112V11.3437C77.6189 11.7395 78.5034 12.4319 79.1265 13.33C79.7496 14.2282 80.0823 15.2904 80.0809 16.3775C80.0821 17.4645 79.7493 18.5265 79.1263 19.4247C78.5032 20.3228 77.6188 21.0152 76.5887 21.4112Z" fill="white"/>
<rect x="108.5" y="0.5" width="45" height="31" rx="5.5" fill="#1F72CD" stroke="#D9D9D9"/>
<path fill-rule="evenodd" clip-rule="evenodd" d="M116.246 11.333L111.942 20.9953H117.095L117.733 19.4548H119.193L119.832 20.9953H125.503V19.8195L126.009 20.9953H128.942L129.448 19.7947V20.9953H141.242L142.677 19.4948L144.02 20.9953L150.077 21.0078L145.76 16.1911L150.077 11.333H144.113L142.717 12.8058L141.417 11.333H128.586L127.484 13.8269L126.356 11.333H121.215V12.4688L120.643 11.333H116.246ZM133.859 12.7051H140.632L142.704 14.9752L144.842 12.7051H146.914L143.766 16.1898L146.914 19.6343H144.748L142.677 17.3379L140.527 19.6343H133.859V12.7051ZM135.532 15.4063V14.1406V14.1394H139.758L141.602 16.1636L139.676 18.1988H135.532V16.817H139.227V15.4063H135.532ZM117.243 12.7051H119.755L122.609 19.2572V12.7051H125.361L127.566 17.4029L129.598 12.7051H132.335V19.6384H130.67L130.656 14.2055L128.227 19.6384H126.737L124.295 14.2055V19.6384H120.869L120.219 18.0841H116.709L116.061 19.6371H114.225L117.243 12.7051ZM117.309 16.6471L118.465 13.8782L119.62 16.6471H117.309Z" fill="white"/>
<rect x="162.5" y="0.5" width="45" height="31" rx="5.5" fill="white" stroke="#D9D9D9"/>
<path d="M181.364 31.3337L207.321 23.667V26.3337C207.321 29.0951 205.083 31.3337 202.321 31.3337H181.364Z" fill="#FD6020"/>
<path fill-rule="evenodd" clip-rule="evenodd" d="M202.395 12.8148C203.823 12.8148 204.609 13.4595 204.609 14.6773C204.68 15.6086 204.037 16.3966 203.18 16.5399L205.108 19.1904H203.609L201.967 16.6115H201.824V19.1904H200.61V12.8148H202.395ZM201.824 15.7519H202.181C202.966 15.7519 203.323 15.3937 203.323 14.749C203.323 14.1759 202.966 13.8177 202.181 13.8177H201.824V15.7519ZM196.397 19.1904H199.825V18.1158H197.611V16.3966H199.753V15.322H197.611V13.8893H199.825V12.8148H196.397V19.1904ZM192.827 17.1129L191.185 12.8148H189.9L192.542 19.3337H193.184L195.826 12.8148H194.541L192.827 17.1129ZM178.332 16.0384C178.332 17.8293 179.761 19.3337 181.546 19.3337C182.117 19.3337 182.617 19.1904 183.116 18.9755V17.5428C182.759 17.9726 182.26 18.2591 181.688 18.2591C180.546 18.2591 179.618 17.3995 179.618 16.2533V16.11C179.546 14.9639 180.475 13.961 181.617 13.8893C182.188 13.8893 182.759 14.1759 183.116 14.6057V13.173C182.688 12.8864 182.117 12.8148 181.617 12.8148C179.761 12.6715 178.332 14.1759 178.332 16.0384ZM176.119 15.2504C175.405 14.9639 175.191 14.8206 175.191 14.4624C175.262 14.0326 175.619 13.6744 176.048 13.7461C176.405 13.7461 176.762 13.961 177.047 14.2475L177.69 13.3879C177.19 12.9581 176.547 12.6715 175.905 12.6715C174.905 12.5999 174.048 13.3879 173.977 14.3908V14.4624C173.977 15.322 174.334 15.8235 175.476 16.1817C175.762 16.2533 176.048 16.3966 176.333 16.5399C176.547 16.6831 176.69 16.898 176.69 17.1846C176.69 17.686 176.262 18.1158 175.833 18.1158H175.762C175.191 18.1158 174.691 17.7577 174.477 17.2562L173.691 18.0442C174.12 18.8322 174.977 19.262 175.833 19.262C176.976 19.3337 177.904 18.474 177.975 17.3279V17.1129C177.904 16.2533 177.547 15.8235 176.119 15.2504ZM171.978 19.1904H173.192V12.8148H171.978V19.1904ZM166.337 12.8148H168.122H168.479C170.193 12.8864 171.549 14.3192 171.478 16.0384C171.478 16.9697 171.049 17.8293 170.335 18.474C169.693 18.9755 168.907 19.262 168.122 19.1904H166.337V12.8148ZM167.908 18.1159C168.479 18.1875 169.122 17.9726 169.55 17.6144C169.978 17.1846 170.193 16.6115 170.193 15.9668C170.193 15.3937 169.978 14.8206 169.55 14.3908C169.122 14.0326 168.479 13.8177 167.908 13.8893H167.551V18.1159H167.908Z" fill="black"/>
<path fill-rule="evenodd" clip-rule="evenodd" d="M186.758 12.667C184.973 12.667 183.474 14.0997 183.474 15.9622C183.474 17.7531 184.902 19.2575 186.758 19.3291C188.615 19.4008 190.043 17.8964 190.114 16.0339C190.043 14.1713 188.615 12.667 186.758 12.667V12.667Z" fill="#FD6020"/>
<rect x="216.5" y="0.5" width="45" height="31" rx="5.5" fill="white" stroke="#D9D9D9"/>
<path fill-rule="evenodd" clip-rule="evenodd" d="M239.329 22.8762C237.763 24.2473 235.731 25.075 233.511 25.075C228.558 25.075 224.543 20.9542 224.543 15.871C224.543 10.7878 228.558 6.66699 233.511 6.66699C235.731 6.66699 237.763 7.49466 239.329 8.8657C240.895 7.49466 242.926 6.66699 245.146 6.66699C250.099 6.66699 254.114 10.7878 254.114 15.871C254.114 20.9542 250.099 25.075 245.146 25.075C242.926 25.075 240.895 24.2473 239.329 22.8762Z" fill="#ED0006"/>
<path fill-rule="evenodd" clip-rule="evenodd" d="M239.329 22.8762C241.257 21.1881 242.48 18.6761 242.48 15.871C242.48 13.0659 241.257 10.5539 239.329 8.8657C240.895 7.49466 242.927 6.66699 245.146 6.66699C250.1 6.66699 254.115 10.7878 254.115 15.871C254.115 20.9542 250.1 25.075 245.146 25.075C242.927 25.075 240.895 24.2473 239.329 22.8762Z" fill="#F9A000"/>
<path fill-rule="evenodd" clip-rule="evenodd" d="M239.329 8.86621C241.257 10.5544 242.48 13.0664 242.48 15.8714C242.48 18.6765 241.257 21.1885 239.329 22.8767C237.4 21.1885 236.178 18.6765 236.178 15.8714C236.178 13.0664 237.4 10.5544 239.329 8.86621Z" fill="#FF5E00"/>
</svg>
