<svg width="23" height="22" viewBox="0 0 23 22" fill="none" xmlns="http://www.w3.org/2000/svg">
<path d="M4.09 9.121C2.92859 8.8577 1.89118 8.20743 1.148 7.27691C0.404819 6.34639 9.72084e-06 5.19088 0 4V2.75C0 1.784 0.784 1 1.75 1H4.114C4.35 0.414 4.924 0 5.594 0H16.406C17.076 0 17.65 0.414 17.886 1H20.375C21.341 1 22.125 1.784 22.125 2.75V4C22.1249 5.21354 21.7046 6.3896 20.9354 7.32828C20.1663 8.26695 19.0958 8.91031 17.906 9.149C17.6978 10.396 17.1563 11.5635 16.3388 12.5279C15.5212 13.4922 14.4581 14.2175 13.262 14.627L13.493 17.63C13.5039 17.6408 13.5152 17.6512 13.527 17.661C13.606 17.726 13.83 17.864 14.363 17.943C15.201 18.067 16 18.753 16 19.75V20.5H18.25C18.4489 20.5 18.6397 20.579 18.7803 20.7197C18.921 20.8603 19 21.0511 19 21.25C19 21.4489 18.921 21.6397 18.7803 21.7803C18.6397 21.921 18.4489 22 18.25 22H3.75C3.55109 22 3.36032 21.921 3.21967 21.7803C3.07902 21.6397 3 21.4489 3 21.25C3 21.0511 3.07902 20.8603 3.21967 20.7197C3.36032 20.579 3.55109 20.5 3.75 20.5H6V19.75C6 18.754 6.8 18.067 7.637 17.943C8.17 17.863 8.394 17.726 8.473 17.661C8.4848 17.6512 8.49615 17.6408 8.507 17.63L8.738 14.627C7.53742 14.2156 6.47099 13.4861 5.65243 12.5163C4.83387 11.5464 4.29387 10.3726 4.09 9.12V9.121ZM5.5 1.594V8C5.5 9.45869 6.07946 10.8576 7.11091 11.8891C8.14236 12.9205 9.54131 13.5 11 13.5C12.4587 13.5 13.8576 12.9205 14.8891 11.8891C15.9205 10.8576 16.5 9.45869 16.5 8V1.594C16.5 1.56907 16.4901 1.54516 16.4725 1.52753C16.4548 1.5099 16.4309 1.5 16.406 1.5H5.594C5.56907 1.5 5.54516 1.5099 5.52753 1.52753C5.5099 1.54516 5.5 1.56907 5.5 1.594ZM10.217 14.957L10.002 17.75L10.001 17.771L9.998 17.814C9.99368 17.8634 9.98633 17.9125 9.976 17.961C9.926 18.198 9.782 18.528 9.423 18.821C9.075 19.107 8.57 19.321 7.857 19.426C7.75324 19.4401 7.65697 19.4879 7.583 19.562C7.5573 19.5862 7.53671 19.6153 7.52246 19.6476C7.5082 19.6799 7.50056 19.7147 7.5 19.75V20.5H14.5V19.75C14.4994 19.7147 14.4918 19.6799 14.4775 19.6476C14.4633 19.6153 14.4427 19.5862 14.417 19.562C14.343 19.4879 14.2468 19.4401 14.143 19.426C13.43 19.321 12.925 19.106 12.576 18.822C12.218 18.528 12.074 18.198 12.024 17.962C12.0107 17.8994 12.0023 17.8359 11.999 17.772L11.998 17.75L11.783 14.957C11.2626 15.015 10.7374 15.015 10.217 14.957ZM18 7.578C18.7613 7.33843 19.4263 6.8623 19.8984 6.21882C20.3705 5.57535 20.625 4.79807 20.625 4V2.75C20.625 2.6837 20.5987 2.62011 20.5518 2.57322C20.5049 2.52634 20.4413 2.5 20.375 2.5H18V7.578ZM4 2.5H1.75C1.6837 2.5 1.62011 2.52634 1.57322 2.57322C1.52634 2.62011 1.5 2.6837 1.5 2.75V4C1.49999 4.77566 1.74038 5.53226 2.18808 6.16567C2.63579 6.79908 3.2688 7.27817 4 7.537V2.5Z" fill="#FFB125"/>
</svg>
